<?xml version="1.0" encoding="UTF-8" standalone="no"?><!DOCTYPE svg PUBLIC "-//W3C//DTD SVG 1.1//EN" "http://www.w3.org/Graphics/SVG/1.1/DTD/svg11.dtd"><!-- Generated by graphviz version 2.40.1 (20161225.0304)
 --><!-- Title: G Pages: 1 --><svg xmlns="http://www.w3.org/2000/svg" xmlns:xlink="http://www.w3.org/1999/xlink" width="744pt" height="958pt" viewBox="0.00 0.00 744.00 958.42">
<g id="graph0" class="graph" transform="scale(1 1) rotate(0) translate(4 954.4178)">
<title>G</title>
<polygon fill="#ffffff" stroke="transparent" points="-4,4 -4,-954.4178 740,-954.4178 740,4 -4,4"/>
<g id="clust1" class="cluster">
<title>cluster_0</title>
<polygon fill="#d3d3d3" stroke="#d3d3d3" points="8,-8 8,-847.6 356,-847.6 356,-8 8,-8"/>
<text text-anchor="middle" x="182" y="-831" font-family="Times,serif" font-size="14.00" fill="#000000">Defense Day Report, 08 Dec 2023</text>
</g>
<g id="clust2" class="cluster">
<title>cluster_1</title>
<polygon fill="none" stroke="#0000ff" points="364,-240.4 364,-609.2 728,-609.2 728,-240.4 364,-240.4"/>
<text text-anchor="middle" x="546" y="-592.6" font-family="Times,serif" font-size="14.00" fill="#000000">Interaction</text>
</g>
<!-- President -->
<g id="node1" class="node">
<title>President</title>
<polygon fill="#ffffff" stroke="#ffffff" points="277,-814.8 210.6405,-796.8 277,-778.8 343.3595,-796.8 277,-814.8"/>
<polyline fill="none" stroke="#ffffff" points="222.222,-799.9415 222.222,-793.6585 "/>
<polyline fill="none" stroke="#ffffff" points="265.4185,-781.9415 288.5815,-781.9415 "/>
<polyline fill="none" stroke="#ffffff" points="331.778,-793.6585 331.778,-799.9415 "/>
<polyline fill="none" stroke="#ffffff" points="288.5815,-811.6585 265.4185,-811.6585 "/>
<text text-anchor="middle" x="277" y="-792.6" font-family="Times,serif" font-size="14.00" fill="#000000">President</text>
</g>
<!-- TakeFeedback -->
<g id="node2" class="node">
<title>TakeFeedback</title>
<ellipse fill="#ffffff" stroke="#ffffff" cx="256" cy="-670" rx="67.1772" ry="18"/>
<text text-anchor="middle" x="256" y="-665.8" font-family="Times,serif" font-size="14.00" fill="#000000">TakeFeedback</text>
</g>
<!-- President&#45;&gt;TakeFeedback -->
<g id="edge1" class="edge">
<title>President-&gt;TakeFeedback</title>
<path fill="none" stroke="#000000" d="M274.1241,-779.4349C270.6643,-758.5442 264.8083,-723.1856 260.6912,-698.3257"/>
<polygon fill="#000000" stroke="#000000" points="264.1321,-697.6807 259.0452,-688.387 257.2262,-698.8245 264.1321,-697.6807"/>
</g>
<!-- UpdateReport -->
<g id="node3" class="node">
<title>UpdateReport</title>
<ellipse fill="#ffffff" stroke="#ffffff" cx="86" cy="-485.4" rx="65.4091" ry="18"/>
<text text-anchor="middle" x="86" y="-481.2" font-family="Times,serif" font-size="14.00" fill="#000000">UpdateReport</text>
</g>
<!-- TakeFeedback&#45;&gt;UpdateReport -->
<g id="edge2" class="edge">
<title>TakeFeedback-&gt;UpdateReport</title>
<path fill="none" stroke="#000000" d="M236.7471,-652.3689C230.6447,-646.6202 223.9428,-640.1365 218,-634 177.6252,-592.3091 133.3268,-541.259 107.6871,-511.1422"/>
<polygon fill="#000000" stroke="#000000" points="110.1088,-508.5866 100.969,-503.228 104.7722,-513.1167 110.1088,-508.5866"/>
</g>
<!-- UpdateNewVersion -->
<g id="node8" class="node">
<title>UpdateNewVersion</title>
<ellipse fill="#d3d3d3" stroke="#000000" cx="460" cy="-558.4" rx="87.9413" ry="18"/>
<text text-anchor="middle" x="460" y="-554.2" font-family="Times,serif" font-size="14.00" fill="#000000">UpdateNewVersion</text>
</g>
<!-- TakeFeedback&#45;&gt;UpdateNewVersion -->
<g id="edge9" class="edge">
<title>TakeFeedback-&gt;UpdateNewVersion</title>
<path fill="none" stroke="#000000" d="M285.6634,-653.7724C321.0606,-634.408 380.4036,-601.9439 419.8755,-580.3504"/>
<polygon fill="#000000" stroke="#000000" points="421.8698,-583.249 428.9631,-575.379 418.5102,-577.1079 421.8698,-583.249"/>
</g>
<!-- TakeFeedback&#45;&gt;UpdateNewVersion -->
<g id="edge18" class="edge">
<title>TakeFeedback-&gt;UpdateNewVersion</title>
<path fill="none" stroke="#000000" d="M299.0496,-655.94C315.3826,-649.9829 333.9127,-642.456 350,-634 378.4295,-619.0566 408.3188,-598.1339 429.7538,-582.0867"/>
<polygon fill="#000000" stroke="#000000" points="431.9601,-584.8063 437.8197,-575.9793 427.7345,-579.2256 431.9601,-584.8063"/>
<text text-anchor="middle" x="420.5614" y="-621.4" font-family="Times,serif" font-size="14.00" fill="#000000">Take Feedback</text>
</g>
<!-- SendDigitalVersion -->
<g id="node4" class="node">
<title>SendDigitalVersion</title>
<ellipse fill="#ffffff" stroke="#ffffff" cx="104" cy="-339.4" rx="87.9781" ry="18"/>
<text text-anchor="middle" x="104" y="-335.2" font-family="Times,serif" font-size="14.00" fill="#000000">SendDigitalVersion</text>
</g>
<!-- UpdateReport&#45;&gt;SendDigitalVersion -->
<g id="edge3" class="edge">
<title>UpdateReport-&gt;SendDigitalVersion</title>
<path fill="none" stroke="#000000" d="M75.8164,-467.387C66.6954,-448.8625 55.9075,-419.2858 64,-394.4 67.431,-383.8491 73.7327,-373.6334 80.3353,-364.9284"/>
<polygon fill="#000000" stroke="#000000" points="83.1114,-367.0616 86.674,-357.0837 77.6667,-362.6622 83.1114,-367.0616"/>
</g>
<!-- UpdateReport&#45;&gt;SendDigitalVersion -->
<g id="edge14" class="edge">
<title>UpdateReport-&gt;SendDigitalVersion</title>
<path fill="none" stroke="#000000" d="M88.2433,-467.2042C91.3153,-442.2868 96.8624,-397.2938 100.4878,-367.8877"/>
<polygon fill="#000000" stroke="#000000" points="103.9784,-368.1783 101.7284,-357.8251 97.031,-367.3217 103.9784,-368.1783"/>
<text text-anchor="middle" x="156.0989" y="-416.6" font-family="Times,serif" font-size="14.00" fill="#000000">Update &amp;</text>
<text text-anchor="middle" x="156.0989" y="-399.8" font-family="Times,serif" font-size="14.00" fill="#000000">Send Digital Version</text>
</g>
<!-- ValidateLatestVersion -->
<g id="node5" class="node">
<title>ValidateLatestVersion</title>
<ellipse fill="#ffffff" stroke="#ffffff" cx="114" cy="-160.8" rx="97.8247" ry="18"/>
<text text-anchor="middle" x="114" y="-156.6" font-family="Times,serif" font-size="14.00" fill="#000000">ValidateLatestVersion</text>
</g>
<!-- SendDigitalVersion&#45;&gt;ValidateLatestVersion -->
<g id="edge4" class="edge">
<title>SendDigitalVersion-&gt;ValidateLatestVersion</title>
<path fill="none" stroke="#000000" d="M103.9322,-321.1359C103.9604,-301.2569 104.3043,-268.5422 106,-240.4 107.0218,-223.4427 108.8934,-204.5184 110.5695,-189.3776"/>
<polygon fill="#000000" stroke="#000000" points="114.0855,-189.4358 111.7405,-179.1037 107.1305,-188.643 114.0855,-189.4358"/>
</g>
<!-- SendDigitalVersion&#45;&gt;ValidateLatestVersion -->
<g id="edge15" class="edge">
<title>SendDigitalVersion-&gt;ValidateLatestVersion</title>
<path fill="none" stroke="#000000" d="M106.8391,-321.1207C107.6385,-315.4528 108.4414,-309.1783 109,-303.4 112.8257,-263.8261 113.8197,-217.8239 114.0289,-189.0082"/>
<polygon fill="#000000" stroke="#000000" points="117.5295,-188.8709 114.0749,-178.8551 110.5295,-188.8391 117.5295,-188.8709"/>
<text text-anchor="middle" x="135.7111" y="-262.2" font-family="Times,serif" font-size="14.00" fill="#000000">Validate</text>
</g>
<!-- AskForNewVersion -->
<g id="node6" class="node">
<title>AskForNewVersion</title>
<ellipse fill="#ffffff" stroke="#ffffff" cx="105" cy="-34" rx="88.6043" ry="18"/>
<text text-anchor="middle" x="105" y="-29.8" font-family="Times,serif" font-size="14.00" fill="#000000">AskForNewVersion</text>
</g>
<!-- ValidateLatestVersion&#45;&gt;AskForNewVersion -->
<g id="edge5" class="edge">
<title>ValidateLatestVersion-&gt;AskForNewVersion</title>
<path fill="none" stroke="#000000" d="M86.9951,-143.4237C76.4991,-133.4594 66.019,-120.1082 61,-105.8 55.4121,-89.8702 63.0529,-72.8547 73.5726,-59.3882"/>
<polygon fill="#000000" stroke="#000000" points="76.5005,-61.3538 80.4021,-51.5035 71.2093,-56.7708 76.5005,-61.3538"/>
</g>
<!-- ValidateLatestVersion&#45;&gt;AskForNewVersion -->
<g id="edge7" class="edge">
<title>ValidateLatestVersion-&gt;AskForNewVersion</title>
<path fill="none" stroke="#000000" d="M102.1257,-142.4489C93.8287,-132.597 83.8571,-119.6466 79,-105.8 73.5922,-90.3834 80.5743,-73.95 88.8108,-60.7007"/>
<polygon fill="#000000" stroke="#000000" points="91.9217,-62.3453 94.5765,-52.0884 86.1049,-58.451 91.9217,-62.3453"/>
</g>
<!-- ValidateLatestVersion&#45;&gt;AskForNewVersion -->
<g id="edge16" class="edge">
<title>ValidateLatestVersion-&gt;AskForNewVersion</title>
<path fill="none" stroke="#000000" d="M110.6764,-142.5368C108.8922,-131.8657 106.8629,-118.1157 105.8828,-105.8 104.7471,-91.5284 104.4527,-75.6119 104.4733,-62.3983"/>
<polygon fill="#000000" stroke="#000000" points="107.976,-62.0569 104.5532,-52.0302 100.9762,-62.0029 107.976,-62.0569"/>
<text text-anchor="middle" x="165.0586" y="-93.2" font-family="Times,serif" font-size="14.00" fill="#000000">Ask for New Version</text>
</g>
<!-- AskForNewVersion&#45;&gt;TakeFeedback -->
<g id="edge8" class="edge">
<title>AskForNewVersion-&gt;TakeFeedback</title>
<path fill="none" stroke="#000000" d="M166.6704,-47.1097C189.3014,-55.2267 212.6329,-68.2408 226,-89 231.4125,-97.4057 223,-438.9024 223,-448.9 223,-558.4 223,-558.4 223,-558.4 223,-588.0104 233.8152,-620.293 243.0626,-642.4841"/>
<polygon fill="#000000" stroke="#000000" points="239.9667,-644.1422 247.1566,-651.9239 246.3887,-641.357 239.9667,-644.1422"/>
</g>
<!-- AskForNewVersion&#45;&gt;TakeFeedback -->
<g id="edge17" class="edge">
<title>AskForNewVersion-&gt;TakeFeedback</title>
<path fill="none" stroke="#000000" d="M162.284,-47.7652C203.1868,-59.321 251,-77.1581 251,-97.4 251,-213.6 251,-213.6 251,-213.6 251,-285.7457 248,-303.7543 248,-375.9 248,-558.4 248,-558.4 248,-558.4 248,-586.7783 250.6054,-619.1121 252.8425,-641.6446"/>
<polygon fill="#000000" stroke="#000000" points="249.3885,-642.2712 253.8981,-651.8584 256.3514,-641.5516 249.3885,-642.2712"/>
<text text-anchor="middle" x="297.7567" y="-335.2" font-family="Times,serif" font-size="14.00" fill="#000000">Ask for Feedback</text>
</g>
<!-- Rapporteur -->
<g id="node7" class="node">
<title>Rapporteur</title>
<polygon fill="#d3d3d3" stroke="#000000" points="643,-576.4 565.9149,-558.4 643,-540.4 720.0851,-558.4 643,-576.4"/>
<polyline fill="none" stroke="#000000" points="577.6005,-561.1287 577.6005,-555.6713 "/>
<polyline fill="none" stroke="#000000" points="631.3144,-543.1287 654.6856,-543.1287 "/>
<polyline fill="none" stroke="#000000" points="708.3995,-555.6713 708.3995,-561.1287 "/>
<polyline fill="none" stroke="#000000" points="654.6856,-573.6713 631.3144,-573.6713 "/>
<text text-anchor="middle" x="643" y="-554.2" font-family="Times,serif" font-size="14.00" fill="#000000">Rapporteur</text>
</g>
<!-- Rapporteur&#45;&gt;ValidateLatestVersion -->
<g id="edge6" class="edge">
<title>Rapporteur-&gt;ValidateLatestVersion</title>
<path fill="none" stroke="#000000" d="M604.9112,-549.2211C535.1589,-532.1473 394,-496.2539 394,-485.4 394,-485.4 394,-485.4 394,-266.4 394,-223.5902 277.963,-192.1358 195.2873,-175.1577"/>
<polygon fill="#000000" stroke="#000000" points="195.875,-171.7058 185.3803,-173.1592 194.4907,-178.5676 195.875,-171.7058"/>
</g>
<!-- ReportBack -->
<g id="node9" class="node">
<title>ReportBack</title>
<ellipse fill="#d3d3d3" stroke="#000000" cx="488" cy="-412.4" rx="57.3224" ry="18"/>
<text text-anchor="middle" x="488" y="-408.2" font-family="Times,serif" font-size="14.00" fill="#000000">ReportBack</text>
</g>
<!-- UpdateNewVersion&#45;&gt;ReportBack -->
<g id="edge10" class="edge">
<title>UpdateNewVersion-&gt;ReportBack</title>
<path fill="none" stroke="#000000" d="M460.8976,-540.0931C462.0644,-521.5888 464.6276,-492.256 470,-467.4 471.9528,-458.3654 474.8267,-448.7212 477.7075,-440.0723"/>
<polygon fill="#000000" stroke="#000000" points="481.0668,-441.0674 481.0377,-430.4726 474.4535,-438.7731 481.0668,-441.0674"/>
</g>
<!-- UpdateNewVersion&#45;&gt;ReportBack -->
<g id="edge19" class="edge">
<title>UpdateNewVersion-&gt;ReportBack</title>
<path fill="none" stroke="#000000" d="M463.5731,-540.0882C464.676,-534.419 465.8917,-528.1519 467,-522.4 472.3423,-494.6733 478.3819,-463.0026 482.6082,-440.7869"/>
<polygon fill="#000000" stroke="#000000" points="486.0967,-441.177 484.5263,-430.6992 479.2199,-439.8694 486.0967,-441.177"/>
<text text-anchor="middle" x="512.1841" y="-489.6" font-family="Times,serif" font-size="14.00" fill="#000000">Update &amp;</text>
<text text-anchor="middle" x="512.1841" y="-472.8" font-family="Times,serif" font-size="14.00" fill="#000000">Report Back</text>
</g>
<!-- ConfirmAndValidate -->
<g id="node10" class="node">
<title>ConfirmAndValidate</title>
<ellipse fill="#d3d3d3" stroke="#000000" cx="515" cy="-266.4" rx="93.1968" ry="18"/>
<text text-anchor="middle" x="515" y="-262.2" font-family="Times,serif" font-size="14.00" fill="#000000">ConfirmAndValidate</text>
</g>
<!-- ReportBack&#45;&gt;ConfirmAndValidate -->
<g id="edge11" class="edge">
<title>ReportBack-&gt;ConfirmAndValidate</title>
<path fill="none" stroke="#000000" d="M488.9842,-394.1115C490.2184,-375.6215 492.8329,-346.2995 498,-321.4 499.8683,-312.397 502.5893,-302.7617 505.3088,-294.1112"/>
<polygon fill="#000000" stroke="#000000" points="508.6684,-295.0982 508.4495,-284.5056 502.015,-292.9227 508.6684,-295.0982"/>
</g>
<!-- ReportBack&#45;&gt;ConfirmAndValidate -->
<g id="edge20" class="edge">
<title>ReportBack-&gt;ConfirmAndValidate</title>
<path fill="none" stroke="#000000" d="M491.6043,-394.0941C492.7084,-388.4252 493.917,-382.1567 495,-376.4 500.2119,-348.6955 505.9472,-317.0218 509.9346,-294.7993"/>
<polygon fill="#000000" stroke="#000000" points="513.4241,-295.1685 511.7417,-284.7081 506.5337,-293.9346 513.4241,-295.1685"/>
<text text-anchor="middle" x="534.9148" y="-343.6" font-family="Times,serif" font-size="14.00" fill="#000000">Confirm &amp;</text>
<text text-anchor="middle" x="534.9148" y="-326.8" font-family="Times,serif" font-size="14.00" fill="#000000">Validate</text>
</g>
<!-- Library -->
<g id="node12" class="node">
<title>Library</title>
<ellipse fill="none" stroke="#000000" cx="515" cy="-160.8" rx="39.9857" ry="18"/>
<text text-anchor="middle" x="515" y="-156.6" font-family="Times,serif" font-size="14.00" fill="#000000">Library</text>
</g>
<!-- ConfirmAndValidate&#45;&gt;Library -->
<g id="edge21" class="edge">
<title>ConfirmAndValidate-&gt;Library</title>
<path fill="none" stroke="#000000" d="M515,-248.0059C515,-231.7279 515,-207.7223 515,-189.0163"/>
<polygon fill="#000000" stroke="#000000" points="518.5001,-188.9833 515,-178.9833 511.5001,-188.9834 518.5001,-188.9833"/>
<text text-anchor="middle" x="544.7388" y="-217.8" font-family="Times,serif" font-size="14.00" fill="#000000">Proceed to</text>
<text text-anchor="middle" x="544.7388" y="-201" font-family="Times,serif" font-size="14.00" fill="#000000">Next Step</text>
</g>
<!-- Start -->
<g id="node11" class="node">
<title>Start</title>
<ellipse fill="none" stroke="#000000" cx="439" cy="-920.4089" rx="30.0178" ry="30.0178"/>
<text text-anchor="middle" x="439" y="-916.2089" font-family="Times,serif" font-size="14.00" fill="#000000">Start</text>
</g>
<!-- Start&#45;&gt;President -->
<g id="edge12" class="edge">
<title>Start-&gt;President</title>
<path fill="none" stroke="#000000" d="M415.0963,-902.17C385.008,-879.2121 333.5338,-839.9363 302.646,-816.3684"/>
<polygon fill="#000000" stroke="#000000" points="304.5881,-813.4477 294.5149,-810.1642 300.3418,-819.0127 304.5881,-813.4477"/>
<text text-anchor="middle" x="409.7118" y="-859.8" font-family="Times,serif" font-size="14.00" fill="#000000">You report to</text>
</g>
<!-- Start&#45;&gt;Rapporteur -->
<g id="edge13" class="edge">
<title>Start-&gt;Rapporteur</title>
<path fill="none" stroke="#000000" d="M468.3471,-913.7767C517.7048,-900.6926 612,-866.5666 612,-796.8 612,-796.8 612,-796.8 612,-670 612,-639.8324 622.6463,-606.6962 631.4609,-584.4312"/>
<polygon fill="#000000" stroke="#000000" points="634.7665,-585.5955 635.3371,-575.016 628.2936,-582.9306 634.7665,-585.5955"/>
<text text-anchor="middle" x="649.7118" y="-729.2" font-family="Times,serif" font-size="14.00" fill="#000000">You report to</text>
</g>
</g>
</svg>