<?xml version="1.0" standalone="no"?>
<!DOCTYPE svg PUBLIC "-//W3C//DTD SVG 20010904//EN"
 "http://www.w3.org/TR/2001/REC-SVG-20010904/DTD/svg10.dtd">
<svg version="1.0" xmlns="http://www.w3.org/2000/svg"
 width="427.000000pt" height="426.000000pt" viewBox="0 0 427.000000 426.000000"
 preserveAspectRatio="xMidYMid meet">

<g transform="translate(0.000000,426.000000) scale(0.100000,-0.100000)"
fill="#006eff" stroke="none">
<path d="M361 3916 c-48 -27 -50 -42 -51 -334 0 -296 3 -317 55 -340 41 -19
557 -17 594 2 48 25 51 46 51 336 0 290 -3 311 -51 336 -39 20 -562 20 -598 0z
m494 -98 c48 -22 55 -51 55 -238 0 -253 3 -250 -250 -250 -254 0 -250 -3 -250
252 1 185 6 209 51 234 32 18 356 19 394 2z"/>
<path d="M561 3716 c-37 -21 -50 -55 -51 -133 0 -123 29 -153 150 -153 120 0
150 30 150 150 0 81 -13 116 -51 136 -36 18 -165 18 -198 0z"/>
<path d="M3361 3916 c-48 -27 -50 -42 -51 -334 0 -296 3 -317 55 -340 41 -19
557 -17 594 2 48 25 51 46 51 336 0 290 -3 311 -51 336 -39 20 -562 20 -598 0z
m494 -98 c48 -22 55 -51 55 -238 0 -253 3 -250 -250 -250 -254 0 -250 -3 -250
252 1 185 6 209 51 234 32 18 356 19 394 2z"/>
<path d="M3561 3716 c-37 -21 -50 -55 -51 -133 0 -123 29 -153 150 -153 120 0
150 30 150 150 0 81 -13 116 -51 136 -36 18 -165 18 -198 0z"/>
<path d="M1130 3905 c-26 -32 13 -81 48 -59 34 22 22 74 -18 74 -10 0 -23 -7
-30 -15z"/>
<path d="M1230 3905 c-26 -32 13 -81 48 -59 34 22 22 74 -18 74 -10 0 -23 -7
-30 -15z"/>
<path d="M1830 3905 c-26 -32 13 -81 48 -59 34 22 22 74 -18 74 -10 0 -23 -7
-30 -15z"/>
<path d="M1930 3905 c-26 -32 13 -81 48 -59 34 22 22 74 -18 74 -10 0 -23 -7
-30 -15z"/>
<path d="M2030 3905 c-26 -32 13 -81 48 -59 34 22 22 74 -18 74 -10 0 -23 -7
-30 -15z"/>
<path d="M2230 3905 c-26 -32 13 -81 48 -59 34 22 22 74 -18 74 -10 0 -23 -7
-30 -15z"/>
<path d="M2330 3905 c-26 -32 13 -81 48 -59 34 22 22 74 -18 74 -10 0 -23 -7
-30 -15z"/>
<path d="M2530 3905 c-26 -32 13 -81 48 -59 34 22 22 74 -18 74 -10 0 -23 -7
-30 -15z"/>
<path d="M2630 3905 c-26 -32 13 -81 48 -59 34 22 22 74 -18 74 -10 0 -23 -7
-30 -15z"/>
<path d="M3030 3905 c-26 -32 13 -81 48 -59 34 22 22 74 -18 74 -10 0 -23 -7
-30 -15z"/>
<path d="M3130 3905 c-26 -32 13 -81 48 -59 34 22 22 74 -18 74 -10 0 -23 -7
-30 -15z"/>
<path d="M1430 3805 c-26 -32 13 -81 48 -59 34 22 22 74 -18 74 -10 0 -23 -7
-30 -15z"/>
<path d="M1830 3805 c-26 -32 13 -81 48 -59 34 22 22 74 -18 74 -10 0 -23 -7
-30 -15z"/>
<path d="M2030 3805 c-26 -32 13 -81 48 -59 34 22 22 74 -18 74 -10 0 -23 -7
-30 -15z"/>
<path d="M2130 3805 c-26 -32 13 -81 48 -59 34 22 22 74 -18 74 -10 0 -23 -7
-30 -15z"/>
<path d="M2330 3805 c-26 -32 13 -81 48 -59 34 22 22 74 -18 74 -10 0 -23 -7
-30 -15z"/>
<path d="M2430 3805 c-26 -32 13 -81 48 -59 34 22 22 74 -18 74 -10 0 -23 -7
-30 -15z"/>
<path d="M2530 3805 c-26 -32 13 -81 48 -59 34 22 22 74 -18 74 -10 0 -23 -7
-30 -15z"/>
<path d="M2630 3805 c-26 -32 13 -81 48 -59 34 22 22 74 -18 74 -10 0 -23 -7
-30 -15z"/>
<path d="M2830 3805 c-26 -32 13 -81 48 -59 34 22 22 74 -18 74 -10 0 -23 -7
-30 -15z"/>
<path d="M2930 3805 c-26 -32 13 -81 48 -59 34 22 22 74 -18 74 -10 0 -23 -7
-30 -15z"/>
<path d="M3130 3805 c-26 -32 13 -81 48 -59 34 22 22 74 -18 74 -10 0 -23 -7
-30 -15z"/>
<path d="M1130 3705 c-26 -32 13 -81 48 -59 34 22 22 74 -18 74 -10 0 -23 -7
-30 -15z"/>
<path d="M1630 3705 c-26 -32 13 -81 48 -59 34 22 22 74 -18 74 -10 0 -23 -7
-30 -15z"/>
<path d="M1930 3705 c-26 -32 13 -81 48 -59 34 22 22 74 -18 74 -10 0 -23 -7
-30 -15z"/>
<path d="M2030 3705 c-26 -32 13 -81 48 -59 34 22 22 74 -18 74 -10 0 -23 -7
-30 -15z"/>
<path d="M2230 3705 c-26 -32 13 -81 48 -59 34 22 22 74 -18 74 -10 0 -23 -7
-30 -15z"/>
<path d="M2330 3705 c-26 -32 13 -81 48 -59 34 22 22 74 -18 74 -10 0 -23 -7
-30 -15z"/>
<path d="M2430 3705 c-26 -32 13 -81 48 -59 34 22 22 74 -18 74 -10 0 -23 -7
-30 -15z"/>
<path d="M2530 3705 c-26 -32 13 -81 48 -59 34 22 22 74 -18 74 -10 0 -23 -7
-30 -15z"/>
<path d="M2830 3705 c-26 -32 13 -81 48 -59 34 22 22 74 -18 74 -10 0 -23 -7
-30 -15z"/>
<path d="M3030 3705 c-26 -32 13 -81 48 -59 34 22 22 74 -18 74 -10 0 -23 -7
-30 -15z"/>
<path d="M3130 3705 c-26 -32 13 -81 48 -59 34 22 22 74 -18 74 -10 0 -23 -7
-30 -15z"/>
<path d="M1230 3605 c-26 -32 13 -81 48 -59 34 22 22 74 -18 74 -10 0 -23 -7
-30 -15z"/>
<path d="M1330 3605 c-26 -32 13 -81 48 -59 34 22 22 74 -18 74 -10 0 -23 -7
-30 -15z"/>
<path d="M1430 3605 c-26 -32 13 -81 48 -59 34 22 22 74 -18 74 -10 0 -23 -7
-30 -15z"/>
<path d="M1630 3605 c-26 -32 13 -81 48 -59 34 22 22 74 -18 74 -10 0 -23 -7
-30 -15z"/>
<path d="M1730 3605 c-26 -32 13 -81 48 -59 34 22 22 74 -18 74 -10 0 -23 -7
-30 -15z"/>
<path d="M1830 3605 c-26 -32 13 -81 48 -59 34 22 22 74 -18 74 -10 0 -23 -7
-30 -15z"/>
<path d="M2030 3605 c-26 -32 13 -81 48 -59 34 22 22 74 -18 74 -10 0 -23 -7
-30 -15z"/>
<path d="M2430 3605 c-26 -32 13 -81 48 -59 34 22 22 74 -18 74 -10 0 -23 -7
-30 -15z"/>
<path d="M2530 3605 c-26 -32 13 -81 48 -59 34 22 22 74 -18 74 -10 0 -23 -7
-30 -15z"/>
<path d="M2630 3605 c-26 -32 13 -81 48 -59 34 22 22 74 -18 74 -10 0 -23 -7
-30 -15z"/>
<path d="M2830 3605 c-26 -32 13 -81 48 -59 34 22 22 74 -18 74 -10 0 -23 -7
-30 -15z"/>
<path d="M2930 3605 c-26 -32 13 -81 48 -59 34 22 22 74 -18 74 -10 0 -23 -7
-30 -15z"/>
<path d="M1630 3505 c-26 -32 13 -81 48 -59 34 22 22 74 -18 74 -10 0 -23 -7
-30 -15z"/>
<path d="M1830 3505 c-26 -32 13 -81 48 -59 34 22 22 74 -18 74 -10 0 -23 -7
-30 -15z"/>
<path d="M2130 3505 c-26 -32 13 -81 48 -59 34 22 22 74 -18 74 -10 0 -23 -7
-30 -15z"/>
<path d="M2430 3505 c-26 -32 13 -81 48 -59 34 22 22 74 -18 74 -10 0 -23 -7
-30 -15z"/>
<path d="M2530 3505 c-26 -32 13 -81 48 -59 34 22 22 74 -18 74 -10 0 -23 -7
-30 -15z"/>
<path d="M2930 3505 c-26 -32 13 -81 48 -59 34 22 22 74 -18 74 -10 0 -23 -7
-30 -15z"/>
<path d="M1130 3405 c-26 -32 13 -81 48 -59 34 22 22 74 -18 74 -10 0 -23 -7
-30 -15z"/>
<path d="M1230 3405 c-26 -32 13 -81 48 -59 34 22 22 74 -18 74 -10 0 -23 -7
-30 -15z"/>
<path d="M1330 3405 c-26 -32 13 -81 48 -59 34 22 22 74 -18 74 -10 0 -23 -7
-30 -15z"/>
<path d="M1630 3405 c-26 -32 13 -81 48 -59 34 22 22 74 -18 74 -10 0 -23 -7
-30 -15z"/>
<path d="M1830 3405 c-26 -32 13 -81 48 -59 34 22 22 74 -18 74 -10 0 -23 -7
-30 -15z"/>
<path d="M1930 3405 c-26 -32 13 -81 48 -59 34 22 22 74 -18 74 -10 0 -23 -7
-30 -15z"/>
<path d="M2030 3405 c-26 -32 13 -81 48 -59 34 22 22 74 -18 74 -10 0 -23 -7
-30 -15z"/>
<path d="M2130 3405 c-26 -32 13 -81 48 -59 34 22 22 74 -18 74 -10 0 -23 -7
-30 -15z"/>
<path d="M2730 3405 c-26 -32 13 -81 48 -59 34 22 22 74 -18 74 -10 0 -23 -7
-30 -15z"/>
<path d="M2830 3405 c-26 -32 13 -81 48 -59 34 22 22 74 -18 74 -10 0 -23 -7
-30 -15z"/>
<path d="M2930 3405 c-26 -32 13 -81 48 -59 34 22 22 74 -18 74 -10 0 -23 -7
-30 -15z"/>
<path d="M3130 3405 c-26 -32 13 -81 48 -59 34 22 22 74 -18 74 -10 0 -23 -7
-30 -15z"/>
<path d="M1130 3305 c-26 -32 13 -81 48 -59 34 22 22 74 -18 74 -10 0 -23 -7
-30 -15z"/>
<path d="M1330 3305 c-26 -32 13 -81 48 -59 34 22 22 74 -18 74 -10 0 -23 -7
-30 -15z"/>
<path d="M1530 3305 c-26 -32 13 -81 48 -59 34 22 22 74 -18 74 -10 0 -23 -7
-30 -15z"/>
<path d="M1730 3305 c-26 -32 13 -81 48 -59 34 22 22 74 -18 74 -10 0 -23 -7
-30 -15z"/>
<path d="M1930 3305 c-26 -32 13 -81 48 -59 34 22 22 74 -18 74 -10 0 -23 -7
-30 -15z"/>
<path d="M2130 3305 c-26 -32 13 -81 48 -59 34 22 22 74 -18 74 -10 0 -23 -7
-30 -15z"/>
<path d="M2330 3305 c-26 -32 13 -81 48 -59 34 22 22 74 -18 74 -10 0 -23 -7
-30 -15z"/>
<path d="M2530 3305 c-26 -32 13 -81 48 -59 34 22 22 74 -18 74 -10 0 -23 -7
-30 -15z"/>
<path d="M2730 3305 c-26 -32 13 -81 48 -59 34 22 22 74 -18 74 -10 0 -23 -7
-30 -15z"/>
<path d="M2930 3305 c-26 -32 13 -81 48 -59 34 22 22 74 -18 74 -10 0 -23 -7
-30 -15z"/>
<path d="M3130 3305 c-26 -32 13 -81 48 -59 34 22 22 74 -18 74 -10 0 -23 -7
-30 -15z"/>
<path d="M1330 3205 c-26 -32 13 -81 48 -59 34 22 22 74 -18 74 -10 0 -23 -7
-30 -15z"/>
<path d="M1430 3205 c-26 -32 13 -81 48 -59 34 22 22 74 -18 74 -10 0 -23 -7
-30 -15z"/>
<path d="M2030 3205 c-26 -32 13 -81 48 -59 34 22 22 74 -18 74 -10 0 -23 -7
-30 -15z"/>
<path d="M2230 3205 c-26 -32 13 -81 48 -59 34 22 22 74 -18 74 -10 0 -23 -7
-30 -15z"/>
<path d="M2330 3205 c-26 -32 13 -81 48 -59 34 22 22 74 -18 74 -10 0 -23 -7
-30 -15z"/>
<path d="M2530 3205 c-26 -32 13 -81 48 -59 34 22 22 74 -18 74 -10 0 -23 -7
-30 -15z"/>
<path d="M2730 3205 c-26 -32 13 -81 48 -59 34 22 22 74 -18 74 -10 0 -23 -7
-30 -15z"/>
<path d="M2830 3205 c-26 -32 13 -81 48 -59 34 22 22 74 -18 74 -10 0 -23 -7
-30 -15z"/>
<path d="M3030 3205 c-26 -32 13 -81 48 -59 34 22 22 74 -18 74 -10 0 -23 -7
-30 -15z"/>
<path d="M330 3105 c-26 -32 13 -81 48 -59 34 22 22 74 -18 74 -10 0 -23 -7
-30 -15z"/>
<path d="M530 3105 c-26 -32 13 -81 48 -59 34 22 22 74 -18 74 -10 0 -23 -7
-30 -15z"/>
<path d="M930 3105 c-26 -32 13 -81 48 -59 34 22 22 74 -18 74 -10 0 -23 -7
-30 -15z"/>
<path d="M1030 3105 c-26 -32 13 -81 48 -59 34 22 22 74 -18 74 -10 0 -23 -7
-30 -15z"/>
<path d="M1230 3105 c-26 -32 13 -81 48 -59 34 22 22 74 -18 74 -10 0 -23 -7
-30 -15z"/>
<path d="M1430 3105 c-26 -32 13 -81 48 -59 34 22 22 74 -18 74 -10 0 -23 -7
-30 -15z"/>
<path d="M1630 3105 c-26 -32 13 -81 48 -59 34 22 22 74 -18 74 -10 0 -23 -7
-30 -15z"/>
<path d="M1730 3105 c-26 -32 13 -81 48 -59 34 22 22 74 -18 74 -10 0 -23 -7
-30 -15z"/>
<path d="M2030 3105 c-26 -32 13 -81 48 -59 34 22 22 74 -18 74 -10 0 -23 -7
-30 -15z"/>
<path d="M2330 3105 c-26 -32 13 -81 48 -59 34 22 22 74 -18 74 -10 0 -23 -7
-30 -15z"/>
<path d="M2430 3105 c-26 -32 13 -81 48 -59 34 22 22 74 -18 74 -10 0 -23 -7
-30 -15z"/>
<path d="M2530 3105 c-26 -32 13 -81 48 -59 34 22 22 74 -18 74 -10 0 -23 -7
-30 -15z"/>
<path d="M2630 3105 c-26 -32 13 -81 48 -59 34 22 22 74 -18 74 -10 0 -23 -7
-30 -15z"/>
<path d="M2830 3105 c-26 -32 13 -81 48 -59 34 22 22 74 -18 74 -10 0 -23 -7
-30 -15z"/>
<path d="M3030 3105 c-26 -32 13 -81 48 -59 34 22 22 74 -18 74 -10 0 -23 -7
-30 -15z"/>
<path d="M3130 3105 c-26 -32 13 -81 48 -59 34 22 22 74 -18 74 -10 0 -23 -7
-30 -15z"/>
<path d="M3430 3105 c-26 -32 13 -81 48 -59 34 22 22 74 -18 74 -10 0 -23 -7
-30 -15z"/>
<path d="M3730 3105 c-26 -32 13 -81 48 -59 34 22 22 74 -18 74 -10 0 -23 -7
-30 -15z"/>
<path d="M3930 3105 c-26 -32 13 -81 48 -59 34 22 22 74 -18 74 -10 0 -23 -7
-30 -15z"/>
<path d="M330 3005 c-26 -32 13 -81 48 -59 34 22 22 74 -18 74 -10 0 -23 -7
-30 -15z"/>
<path d="M530 3005 c-26 -32 13 -81 48 -59 34 22 22 74 -18 74 -10 0 -23 -7
-30 -15z"/>
<path d="M1030 3005 c-26 -32 13 -81 48 -59 34 22 22 74 -18 74 -10 0 -23 -7
-30 -15z"/>
<path d="M1330 3005 c-26 -32 13 -81 48 -59 34 22 22 74 -18 74 -10 0 -23 -7
-30 -15z"/>
<path d="M1430 3005 c-26 -32 13 -81 48 -59 34 22 22 74 -18 74 -10 0 -23 -7
-30 -15z"/>
<path d="M1530 3005 c-26 -32 13 -81 48 -59 34 22 22 74 -18 74 -10 0 -23 -7
-30 -15z"/>
<path d="M2030 3005 c-26 -32 13 -81 48 -59 34 22 22 74 -18 74 -10 0 -23 -7
-30 -15z"/>
<path d="M2330 3005 c-26 -32 13 -81 48 -59 34 22 22 74 -18 74 -10 0 -23 -7
-30 -15z"/>
<path d="M2530 3005 c-26 -32 13 -81 48 -59 34 22 22 74 -18 74 -10 0 -23 -7
-30 -15z"/>
<path d="M2830 3005 c-26 -32 13 -81 48 -59 34 22 22 74 -18 74 -10 0 -23 -7
-30 -15z"/>
<path d="M3130 3005 c-26 -32 13 -81 48 -59 34 22 22 74 -18 74 -10 0 -23 -7
-30 -15z"/>
<path d="M3430 3005 c-26 -32 13 -81 48 -59 34 22 22 74 -18 74 -10 0 -23 -7
-30 -15z"/>
<path d="M3530 3005 c-26 -32 13 -81 48 -59 34 22 22 74 -18 74 -10 0 -23 -7
-30 -15z"/>
<path d="M3630 3005 c-26 -32 13 -81 48 -59 34 22 22 74 -18 74 -10 0 -23 -7
-30 -15z"/>
<path d="M3730 3005 c-26 -32 13 -81 48 -59 34 22 22 74 -18 74 -10 0 -23 -7
-30 -15z"/>
<path d="M3830 3005 c-26 -32 13 -81 48 -59 34 22 22 74 -18 74 -10 0 -23 -7
-30 -15z"/>
<path d="M3930 3005 c-26 -32 13 -81 48 -59 34 22 22 74 -18 74 -10 0 -23 -7
-30 -15z"/>
<path d="M430 2905 c-26 -32 13 -81 48 -59 34 22 22 74 -18 74 -10 0 -23 -7
-30 -15z"/>
<path d="M530 2905 c-26 -32 13 -81 48 -59 34 22 22 74 -18 74 -10 0 -23 -7
-30 -15z"/>
<path d="M730 2905 c-26 -32 13 -81 48 -59 34 22 22 74 -18 74 -10 0 -23 -7
-30 -15z"/>
<path d="M830 2905 c-26 -32 13 -81 48 -59 34 22 22 74 -18 74 -10 0 -23 -7
-30 -15z"/>
<path d="M930 2905 c-26 -32 13 -81 48 -59 34 22 22 74 -18 74 -10 0 -23 -7
-30 -15z"/>
<path d="M1030 2905 c-26 -32 13 -81 48 -59 34 22 22 74 -18 74 -10 0 -23 -7
-30 -15z"/>
<path d="M1130 2905 c-26 -32 13 -81 48 -59 34 22 22 74 -18 74 -10 0 -23 -7
-30 -15z"/>
<path d="M1330 2905 c-26 -32 13 -81 48 -59 34 22 22 74 -18 74 -10 0 -23 -7
-30 -15z"/>
<path d="M1630 2905 c-26 -32 13 -81 48 -59 34 22 22 74 -18 74 -10 0 -23 -7
-30 -15z"/>
<path d="M1830 2905 c-26 -32 13 -81 48 -59 34 22 22 74 -18 74 -10 0 -23 -7
-30 -15z"/>
<path d="M2330 2905 c-26 -32 13 -81 48 -59 34 22 22 74 -18 74 -10 0 -23 -7
-30 -15z"/>
<path d="M2630 2905 c-26 -32 13 -81 48 -59 34 22 22 74 -18 74 -10 0 -23 -7
-30 -15z"/>
<path d="M2830 2905 c-26 -32 13 -81 48 -59 34 22 22 74 -18 74 -10 0 -23 -7
-30 -15z"/>
<path d="M3130 2905 c-26 -32 13 -81 48 -59 34 22 22 74 -18 74 -10 0 -23 -7
-30 -15z"/>
<path d="M3230 2905 c-26 -32 13 -81 48 -59 34 22 22 74 -18 74 -10 0 -23 -7
-30 -15z"/>
<path d="M3430 2905 c-26 -32 13 -81 48 -59 34 22 22 74 -18 74 -10 0 -23 -7
-30 -15z"/>
<path d="M3630 2905 c-26 -32 13 -81 48 -59 34 22 22 74 -18 74 -10 0 -23 -7
-30 -15z"/>
<path d="M3930 2905 c-26 -32 13 -81 48 -59 34 22 22 74 -18 74 -10 0 -23 -7
-30 -15z"/>
<path d="M330 2805 c-26 -32 13 -81 48 -59 34 22 22 74 -18 74 -10 0 -23 -7
-30 -15z"/>
<path d="M530 2805 c-26 -32 13 -81 48 -59 34 22 22 74 -18 74 -10 0 -23 -7
-30 -15z"/>
<path d="M1330 2805 c-26 -32 13 -81 48 -59 34 22 22 74 -18 74 -10 0 -23 -7
-30 -15z"/>
<path d="M1430 2805 c-26 -32 13 -81 48 -59 34 22 22 74 -18 74 -10 0 -23 -7
-30 -15z"/>
<path d="M2230 2805 c-26 -32 13 -81 48 -59 34 22 22 74 -18 74 -10 0 -23 -7
-30 -15z"/>
<path d="M2330 2805 c-26 -32 13 -81 48 -59 34 22 22 74 -18 74 -10 0 -23 -7
-30 -15z"/>
<path d="M2530 2805 c-26 -32 13 -81 48 -59 34 22 22 74 -18 74 -10 0 -23 -7
-30 -15z"/>
<path d="M2930 2805 c-26 -32 13 -81 48 -59 34 22 22 74 -18 74 -10 0 -23 -7
-30 -15z"/>
<path d="M3030 2805 c-26 -32 13 -81 48 -59 34 22 22 74 -18 74 -10 0 -23 -7
-30 -15z"/>
<path d="M3130 2805 c-26 -32 13 -81 48 -59 34 22 22 74 -18 74 -10 0 -23 -7
-30 -15z"/>
<path d="M3230 2805 c-26 -32 13 -81 48 -59 34 22 22 74 -18 74 -10 0 -23 -7
-30 -15z"/>
<path d="M3430 2805 c-26 -32 13 -81 48 -59 34 22 22 74 -18 74 -10 0 -23 -7
-30 -15z"/>
<path d="M3530 2805 c-26 -32 13 -81 48 -59 34 22 22 74 -18 74 -10 0 -23 -7
-30 -15z"/>
<path d="M3630 2805 c-26 -32 13 -81 48 -59 34 22 22 74 -18 74 -10 0 -23 -7
-30 -15z"/>
<path d="M3730 2805 c-26 -32 13 -81 48 -59 34 22 22 74 -18 74 -10 0 -23 -7
-30 -15z"/>
<path d="M330 2705 c-26 -32 13 -81 48 -59 34 22 22 74 -18 74 -10 0 -23 -7
-30 -15z"/>
<path d="M430 2705 c-26 -32 13 -81 48 -59 34 22 22 74 -18 74 -10 0 -23 -7
-30 -15z"/>
<path d="M530 2705 c-26 -32 13 -81 48 -59 34 22 22 74 -18 74 -10 0 -23 -7
-30 -15z"/>
<path d="M730 2705 c-26 -32 13 -81 48 -59 34 22 22 74 -18 74 -10 0 -23 -7
-30 -15z"/>
<path d="M930 2705 c-26 -32 13 -81 48 -59 34 22 22 74 -18 74 -10 0 -23 -7
-30 -15z"/>
<path d="M1130 2705 c-26 -32 13 -81 48 -59 34 22 22 74 -18 74 -10 0 -23 -7
-30 -15z"/>
<path d="M1230 2705 c-26 -32 13 -81 48 -59 34 22 22 74 -18 74 -10 0 -23 -7
-30 -15z"/>
<path d="M1530 2705 c-26 -32 13 -81 48 -59 34 22 22 74 -18 74 -10 0 -23 -7
-30 -15z"/>
<path d="M1630 2705 c-26 -32 13 -81 48 -59 34 22 22 74 -18 74 -10 0 -23 -7
-30 -15z"/>
<path d="M1730 2705 c-26 -32 13 -81 48 -59 34 22 22 74 -18 74 -10 0 -23 -7
-30 -15z"/>
<path d="M1830 2705 c-26 -32 13 -81 48 -59 34 22 22 74 -18 74 -10 0 -23 -7
-30 -15z"/>
<path d="M1930 2705 c-26 -32 13 -81 48 -59 34 22 22 74 -18 74 -10 0 -23 -7
-30 -15z"/>
<path d="M2330 2705 c-26 -32 13 -81 48 -59 34 22 22 74 -18 74 -10 0 -23 -7
-30 -15z"/>
<path d="M2630 2705 c-26 -32 13 -81 48 -59 34 22 22 74 -18 74 -10 0 -23 -7
-30 -15z"/>
<path d="M2730 2705 c-26 -32 13 -81 48 -59 34 22 22 74 -18 74 -10 0 -23 -7
-30 -15z"/>
<path d="M3130 2705 c-26 -32 13 -81 48 -59 34 22 22 74 -18 74 -10 0 -23 -7
-30 -15z"/>
<path d="M3330 2705 c-26 -32 13 -81 48 -59 34 22 22 74 -18 74 -10 0 -23 -7
-30 -15z"/>
<path d="M3430 2705 c-26 -32 13 -81 48 -59 34 22 22 74 -18 74 -10 0 -23 -7
-30 -15z"/>
<path d="M3630 2705 c-26 -32 13 -81 48 -59 34 22 22 74 -18 74 -10 0 -23 -7
-30 -15z"/>
<path d="M3730 2705 c-26 -32 13 -81 48 -59 34 22 22 74 -18 74 -10 0 -23 -7
-30 -15z"/>
<path d="M3930 2705 c-26 -32 13 -81 48 -59 34 22 22 74 -18 74 -10 0 -23 -7
-30 -15z"/>
<path d="M330 2605 c-26 -32 13 -81 48 -59 34 22 22 74 -18 74 -10 0 -23 -7
-30 -15z"/>
<path d="M730 2605 c-26 -32 13 -81 48 -59 34 22 22 74 -18 74 -10 0 -23 -7
-30 -15z"/>
<path d="M1030 2605 c-26 -32 13 -81 48 -59 34 22 22 74 -18 74 -10 0 -23 -7
-30 -15z"/>
<path d="M1130 2605 c-26 -32 13 -81 48 -59 34 22 22 74 -18 74 -10 0 -23 -7
-30 -15z"/>
<path d="M1630 2605 c-26 -32 13 -81 48 -59 34 22 22 74 -18 74 -10 0 -23 -7
-30 -15z"/>
<path d="M2630 2605 c-26 -32 13 -81 48 -59 34 22 22 74 -18 74 -10 0 -23 -7
-30 -15z"/>
<path d="M2730 2605 c-26 -32 13 -81 48 -59 34 22 22 74 -18 74 -10 0 -23 -7
-30 -15z"/>
<path d="M2930 2605 c-26 -32 13 -81 48 -59 34 22 22 74 -18 74 -10 0 -23 -7
-30 -15z"/>
<path d="M3030 2605 c-26 -32 13 -81 48 -59 34 22 22 74 -18 74 -10 0 -23 -7
-30 -15z"/>
<path d="M3130 2605 c-26 -32 13 -81 48 -59 34 22 22 74 -18 74 -10 0 -23 -7
-30 -15z"/>
<path d="M3230 2605 c-26 -32 13 -81 48 -59 34 22 22 74 -18 74 -10 0 -23 -7
-30 -15z"/>
<path d="M3330 2605 c-26 -32 13 -81 48 -59 34 22 22 74 -18 74 -10 0 -23 -7
-30 -15z"/>
<path d="M3430 2605 c-26 -32 13 -81 48 -59 34 22 22 74 -18 74 -10 0 -23 -7
-30 -15z"/>
<path d="M3630 2605 c-26 -32 13 -81 48 -59 34 22 22 74 -18 74 -10 0 -23 -7
-30 -15z"/>
<path d="M3830 2605 c-26 -32 13 -81 48 -59 34 22 22 74 -18 74 -10 0 -23 -7
-30 -15z"/>
<path d="M2075 2563 c-165 -37 -288 -152 -330 -308 -79 -289 179 -576 471
-526 139 25 259 114 316 237 113 242 -18 521 -277 589 -56 14 -136 18 -180 8z
m233 -412 c2 -213 -1 -276 -10 -283 -21 -13 -282 -10 -296 4 -9 9 -12 82 -12
269 0 142 3 265 6 273 6 14 26 16 158 14 l151 -3 3 -274z"/>
<path d="M2020 2175 l0 -195 130 0 130 0 0 195 0 195 -130 0 -130 0 0 -195z"/>
<path d="M2132 1918 c2 -15 10 -23 23 -23 30 0 27 39 -3 43 -20 3 -23 0 -20
-20z"/>
<path d="M430 2505 c-26 -32 13 -81 48 -59 34 22 22 74 -18 74 -10 0 -23 -7
-30 -15z"/>
<path d="M730 2505 c-26 -32 13 -81 48 -59 34 22 22 74 -18 74 -10 0 -23 -7
-30 -15z"/>
<path d="M830 2505 c-26 -32 13 -81 48 -59 34 22 22 74 -18 74 -10 0 -23 -7
-30 -15z"/>
<path d="M930 2505 c-26 -32 13 -81 48 -59 34 22 22 74 -18 74 -10 0 -23 -7
-30 -15z"/>
<path d="M1130 2505 c-26 -32 13 -81 48 -59 34 22 22 74 -18 74 -10 0 -23 -7
-30 -15z"/>
<path d="M1530 2505 c-26 -32 13 -81 48 -59 34 22 22 74 -18 74 -10 0 -23 -7
-30 -15z"/>
<path d="M1630 2505 c-26 -32 13 -81 48 -59 34 22 22 74 -18 74 -10 0 -23 -7
-30 -15z"/>
<path d="M2630 2505 c-26 -32 13 -81 48 -59 34 22 22 74 -18 74 -10 0 -23 -7
-30 -15z"/>
<path d="M2830 2505 c-26 -32 13 -81 48 -59 34 22 22 74 -18 74 -10 0 -23 -7
-30 -15z"/>
<path d="M2930 2505 c-26 -32 13 -81 48 -59 34 22 22 74 -18 74 -10 0 -23 -7
-30 -15z"/>
<path d="M3030 2505 c-26 -32 13 -81 48 -59 34 22 22 74 -18 74 -10 0 -23 -7
-30 -15z"/>
<path d="M3130 2505 c-26 -32 13 -81 48 -59 34 22 22 74 -18 74 -10 0 -23 -7
-30 -15z"/>
<path d="M3230 2505 c-26 -32 13 -81 48 -59 34 22 22 74 -18 74 -10 0 -23 -7
-30 -15z"/>
<path d="M3330 2505 c-26 -32 13 -81 48 -59 34 22 22 74 -18 74 -10 0 -23 -7
-30 -15z"/>
<path d="M3630 2505 c-26 -32 13 -81 48 -59 34 22 22 74 -18 74 -10 0 -23 -7
-30 -15z"/>
<path d="M3730 2505 c-26 -32 13 -81 48 -59 34 22 22 74 -18 74 -10 0 -23 -7
-30 -15z"/>
<path d="M3830 2505 c-26 -32 13 -81 48 -59 34 22 22 74 -18 74 -10 0 -23 -7
-30 -15z"/>
<path d="M3930 2505 c-26 -32 13 -81 48 -59 34 22 22 74 -18 74 -10 0 -23 -7
-30 -15z"/>
<path d="M330 2405 c-26 -32 13 -81 48 -59 34 22 22 74 -18 74 -10 0 -23 -7
-30 -15z"/>
<path d="M630 2405 c-26 -32 13 -81 48 -59 34 22 22 74 -18 74 -10 0 -23 -7
-30 -15z"/>
<path d="M1030 2405 c-26 -32 13 -81 48 -59 34 22 22 74 -18 74 -10 0 -23 -7
-30 -15z"/>
<path d="M1230 2405 c-26 -32 13 -81 48 -59 34 22 22 74 -18 74 -10 0 -23 -7
-30 -15z"/>
<path d="M1630 2405 c-26 -32 13 -81 48 -59 34 22 22 74 -18 74 -10 0 -23 -7
-30 -15z"/>
<path d="M2730 2405 c-26 -32 13 -81 48 -59 34 22 22 74 -18 74 -10 0 -23 -7
-30 -15z"/>
<path d="M2930 2405 c-26 -32 13 -81 48 -59 34 22 22 74 -18 74 -10 0 -23 -7
-30 -15z"/>
<path d="M3030 2405 c-26 -32 13 -81 48 -59 34 22 22 74 -18 74 -10 0 -23 -7
-30 -15z"/>
<path d="M3130 2405 c-26 -32 13 -81 48 -59 34 22 22 74 -18 74 -10 0 -23 -7
-30 -15z"/>
<path d="M3230 2405 c-26 -32 13 -81 48 -59 34 22 22 74 -18 74 -10 0 -23 -7
-30 -15z"/>
<path d="M3430 2405 c-26 -32 13 -81 48 -59 34 22 22 74 -18 74 -10 0 -23 -7
-30 -15z"/>
<path d="M3530 2405 c-26 -32 13 -81 48 -59 34 22 22 74 -18 74 -10 0 -23 -7
-30 -15z"/>
<path d="M3630 2405 c-26 -32 13 -81 48 -59 34 22 22 74 -18 74 -10 0 -23 -7
-30 -15z"/>
<path d="M3830 2405 c-26 -32 13 -81 48 -59 34 22 22 74 -18 74 -10 0 -23 -7
-30 -15z"/>
<path d="M430 2305 c-26 -32 13 -81 48 -59 34 22 22 74 -18 74 -10 0 -23 -7
-30 -15z"/>
<path d="M530 2305 c-26 -32 13 -81 48 -59 34 22 22 74 -18 74 -10 0 -23 -7
-30 -15z"/>
<path d="M630 2305 c-26 -32 13 -81 48 -59 34 22 22 74 -18 74 -10 0 -23 -7
-30 -15z"/>
<path d="M930 2305 c-26 -32 13 -81 48 -59 34 22 22 74 -18 74 -10 0 -23 -7
-30 -15z"/>
<path d="M1230 2305 c-26 -32 13 -81 48 -59 34 22 22 74 -18 74 -10 0 -23 -7
-30 -15z"/>
<path d="M1430 2305 c-26 -32 13 -81 48 -59 34 22 22 74 -18 74 -10 0 -23 -7
-30 -15z"/>
<path d="M1530 2305 c-26 -32 13 -81 48 -59 34 22 22 74 -18 74 -10 0 -23 -7
-30 -15z"/>
<path d="M2730 2305 c-26 -32 13 -81 48 -59 34 22 22 74 -18 74 -10 0 -23 -7
-30 -15z"/>
<path d="M2830 2305 c-26 -32 13 -81 48 -59 34 22 22 74 -18 74 -10 0 -23 -7
-30 -15z"/>
<path d="M2930 2305 c-26 -32 13 -81 48 -59 34 22 22 74 -18 74 -10 0 -23 -7
-30 -15z"/>
<path d="M3230 2305 c-26 -32 13 -81 48 -59 34 22 22 74 -18 74 -10 0 -23 -7
-30 -15z"/>
<path d="M3330 2305 c-26 -32 13 -81 48 -59 34 22 22 74 -18 74 -10 0 -23 -7
-30 -15z"/>
<path d="M3530 2305 c-26 -32 13 -81 48 -59 34 22 22 74 -18 74 -10 0 -23 -7
-30 -15z"/>
<path d="M3830 2305 c-26 -32 13 -81 48 -59 34 22 22 74 -18 74 -10 0 -23 -7
-30 -15z"/>
<path d="M3930 2305 c-26 -32 13 -81 48 -59 34 22 22 74 -18 74 -10 0 -23 -7
-30 -15z"/>
<path d="M430 2205 c-26 -32 13 -81 48 -59 34 22 22 74 -18 74 -10 0 -23 -7
-30 -15z"/>
<path d="M530 2205 c-26 -32 13 -81 48 -59 34 22 22 74 -18 74 -10 0 -23 -7
-30 -15z"/>
<path d="M730 2205 c-26 -32 13 -81 48 -59 34 22 22 74 -18 74 -10 0 -23 -7
-30 -15z"/>
<path d="M1230 2205 c-26 -32 13 -81 48 -59 34 22 22 74 -18 74 -10 0 -23 -7
-30 -15z"/>
<path d="M2730 2205 c-26 -32 13 -81 48 -59 34 22 22 74 -18 74 -10 0 -23 -7
-30 -15z"/>
<path d="M2930 2205 c-26 -32 13 -81 48 -59 34 22 22 74 -18 74 -10 0 -23 -7
-30 -15z"/>
<path d="M3230 2205 c-26 -32 13 -81 48 -59 34 22 22 74 -18 74 -10 0 -23 -7
-30 -15z"/>
<path d="M3830 2205 c-26 -32 13 -81 48 -59 34 22 22 74 -18 74 -10 0 -23 -7
-30 -15z"/>
<path d="M3930 2205 c-26 -32 13 -81 48 -59 34 22 22 74 -18 74 -10 0 -23 -7
-30 -15z"/>
<path d="M330 2105 c-26 -32 13 -81 48 -59 34 22 22 74 -18 74 -10 0 -23 -7
-30 -15z"/>
<path d="M430 2105 c-26 -32 13 -81 48 -59 34 22 22 74 -18 74 -10 0 -23 -7
-30 -15z"/>
<path d="M530 2105 c-26 -32 13 -81 48 -59 34 22 22 74 -18 74 -10 0 -23 -7
-30 -15z"/>
<path d="M630 2105 c-26 -32 13 -81 48 -59 34 22 22 74 -18 74 -10 0 -23 -7
-30 -15z"/>
<path d="M830 2105 c-26 -32 13 -81 48 -59 34 22 22 74 -18 74 -10 0 -23 -7
-30 -15z"/>
<path d="M930 2105 c-26 -32 13 -81 48 -59 34 22 22 74 -18 74 -10 0 -23 -7
-30 -15z"/>
<path d="M1130 2105 c-26 -32 13 -81 48 -59 34 22 22 74 -18 74 -10 0 -23 -7
-30 -15z"/>
<path d="M1230 2105 c-26 -32 13 -81 48 -59 34 22 22 74 -18 74 -10 0 -23 -7
-30 -15z"/>
<path d="M1430 2105 c-26 -32 13 -81 48 -59 34 22 22 74 -18 74 -10 0 -23 -7
-30 -15z"/>
<path d="M1630 2105 c-26 -32 13 -81 48 -59 34 22 22 74 -18 74 -10 0 -23 -7
-30 -15z"/>
<path d="M2730 2105 c-26 -32 13 -81 48 -59 34 22 22 74 -18 74 -10 0 -23 -7
-30 -15z"/>
<path d="M2830 2105 c-26 -32 13 -81 48 -59 34 22 22 74 -18 74 -10 0 -23 -7
-30 -15z"/>
<path d="M2930 2105 c-26 -32 13 -81 48 -59 34 22 22 74 -18 74 -10 0 -23 -7
-30 -15z"/>
<path d="M3030 2105 c-26 -32 13 -81 48 -59 34 22 22 74 -18 74 -10 0 -23 -7
-30 -15z"/>
<path d="M3230 2105 c-26 -32 13 -81 48 -59 34 22 22 74 -18 74 -10 0 -23 -7
-30 -15z"/>
<path d="M3330 2105 c-26 -32 13 -81 48 -59 34 22 22 74 -18 74 -10 0 -23 -7
-30 -15z"/>
<path d="M3530 2105 c-26 -32 13 -81 48 -59 34 22 22 74 -18 74 -10 0 -23 -7
-30 -15z"/>
<path d="M3730 2105 c-26 -32 13 -81 48 -59 34 22 22 74 -18 74 -10 0 -23 -7
-30 -15z"/>
<path d="M3930 2105 c-26 -32 13 -81 48 -59 34 22 22 74 -18 74 -10 0 -23 -7
-30 -15z"/>
<path d="M330 2005 c-26 -32 13 -81 48 -59 34 22 22 74 -18 74 -10 0 -23 -7
-30 -15z"/>
<path d="M830 2005 c-26 -32 13 -81 48 -59 34 22 22 74 -18 74 -10 0 -23 -7
-30 -15z"/>
<path d="M1030 2005 c-26 -32 13 -81 48 -59 34 22 22 74 -18 74 -10 0 -23 -7
-30 -15z"/>
<path d="M1230 2005 c-26 -32 13 -81 48 -59 34 22 22 74 -18 74 -10 0 -23 -7
-30 -15z"/>
<path d="M1430 2005 c-26 -32 13 -81 48 -59 34 22 22 74 -18 74 -10 0 -23 -7
-30 -15z"/>
<path d="M1530 2005 c-26 -32 13 -81 48 -59 34 22 22 74 -18 74 -10 0 -23 -7
-30 -15z"/>
<path d="M1630 2005 c-26 -32 13 -81 48 -59 34 22 22 74 -18 74 -10 0 -23 -7
-30 -15z"/>
<path d="M2630 2005 c-26 -32 13 -81 48 -59 34 22 22 74 -18 74 -10 0 -23 -7
-30 -15z"/>
<path d="M2730 2005 c-26 -32 13 -81 48 -59 34 22 22 74 -18 74 -10 0 -23 -7
-30 -15z"/>
<path d="M3230 2005 c-26 -32 13 -81 48 -59 34 22 22 74 -18 74 -10 0 -23 -7
-30 -15z"/>
<path d="M3330 2005 c-26 -32 13 -81 48 -59 34 22 22 74 -18 74 -10 0 -23 -7
-30 -15z"/>
<path d="M830 1905 c-26 -32 13 -81 48 -59 34 22 22 74 -18 74 -10 0 -23 -7
-30 -15z"/>
<path d="M930 1905 c-26 -32 13 -81 48 -59 34 22 22 74 -18 74 -10 0 -23 -7
-30 -15z"/>
<path d="M1030 1905 c-26 -32 13 -81 48 -59 34 22 22 74 -18 74 -10 0 -23 -7
-30 -15z"/>
<path d="M1630 1905 c-26 -32 13 -81 48 -59 34 22 22 74 -18 74 -10 0 -23 -7
-30 -15z"/>
<path d="M2730 1905 c-26 -32 13 -81 48 -59 34 22 22 74 -18 74 -10 0 -23 -7
-30 -15z"/>
<path d="M3030 1905 c-26 -32 13 -81 48 -59 34 22 22 74 -18 74 -10 0 -23 -7
-30 -15z"/>
<path d="M3130 1905 c-26 -32 13 -81 48 -59 34 22 22 74 -18 74 -10 0 -23 -7
-30 -15z"/>
<path d="M3330 1905 c-26 -32 13 -81 48 -59 34 22 22 74 -18 74 -10 0 -23 -7
-30 -15z"/>
<path d="M3430 1905 c-26 -32 13 -81 48 -59 34 22 22 74 -18 74 -10 0 -23 -7
-30 -15z"/>
<path d="M3730 1905 c-26 -32 13 -81 48 -59 34 22 22 74 -18 74 -10 0 -23 -7
-30 -15z"/>
<path d="M3830 1905 c-26 -32 13 -81 48 -59 34 22 22 74 -18 74 -10 0 -23 -7
-30 -15z"/>
<path d="M430 1805 c-26 -32 13 -81 48 -59 34 22 22 74 -18 74 -10 0 -23 -7
-30 -15z"/>
<path d="M830 1805 c-26 -32 13 -81 48 -59 34 22 22 74 -18 74 -10 0 -23 -7
-30 -15z"/>
<path d="M1130 1805 c-26 -32 13 -81 48 -59 34 22 22 74 -18 74 -10 0 -23 -7
-30 -15z"/>
<path d="M1330 1805 c-26 -32 13 -81 48 -59 34 22 22 74 -18 74 -10 0 -23 -7
-30 -15z"/>
<path d="M2630 1805 c-26 -32 13 -81 48 -59 34 22 22 74 -18 74 -10 0 -23 -7
-30 -15z"/>
<path d="M2830 1805 c-26 -32 13 -81 48 -59 34 22 22 74 -18 74 -10 0 -23 -7
-30 -15z"/>
<path d="M2930 1805 c-26 -32 13 -81 48 -59 34 22 22 74 -18 74 -10 0 -23 -7
-30 -15z"/>
<path d="M3030 1805 c-26 -32 13 -81 48 -59 34 22 22 74 -18 74 -10 0 -23 -7
-30 -15z"/>
<path d="M3230 1805 c-26 -32 13 -81 48 -59 34 22 22 74 -18 74 -10 0 -23 -7
-30 -15z"/>
<path d="M3330 1805 c-26 -32 13 -81 48 -59 34 22 22 74 -18 74 -10 0 -23 -7
-30 -15z"/>
<path d="M330 1705 c-26 -32 13 -81 48 -59 34 22 22 74 -18 74 -10 0 -23 -7
-30 -15z"/>
<path d="M630 1705 c-26 -32 13 -81 48 -59 34 22 22 74 -18 74 -10 0 -23 -7
-30 -15z"/>
<path d="M930 1705 c-26 -32 13 -81 48 -59 34 22 22 74 -18 74 -10 0 -23 -7
-30 -15z"/>
<path d="M1230 1705 c-26 -32 13 -81 48 -59 34 22 22 74 -18 74 -10 0 -23 -7
-30 -15z"/>
<path d="M1430 1705 c-26 -32 13 -81 48 -59 34 22 22 74 -18 74 -10 0 -23 -7
-30 -15z"/>
<path d="M1630 1705 c-26 -32 13 -81 48 -59 34 22 22 74 -18 74 -10 0 -23 -7
-30 -15z"/>
<path d="M2630 1705 c-26 -32 13 -81 48 -59 34 22 22 74 -18 74 -10 0 -23 -7
-30 -15z"/>
<path d="M2730 1705 c-26 -32 13 -81 48 -59 34 22 22 74 -18 74 -10 0 -23 -7
-30 -15z"/>
<path d="M3030 1705 c-26 -32 13 -81 48 -59 34 22 22 74 -18 74 -10 0 -23 -7
-30 -15z"/>
<path d="M3630 1705 c-26 -32 13 -81 48 -59 34 22 22 74 -18 74 -10 0 -23 -7
-30 -15z"/>
<path d="M3730 1705 c-26 -32 13 -81 48 -59 34 22 22 74 -18 74 -10 0 -23 -7
-30 -15z"/>
<path d="M330 1605 c-26 -32 13 -81 48 -59 34 22 22 74 -18 74 -10 0 -23 -7
-30 -15z"/>
<path d="M530 1605 c-26 -32 13 -81 48 -59 34 22 22 74 -18 74 -10 0 -23 -7
-30 -15z"/>
<path d="M1030 1605 c-26 -32 13 -81 48 -59 34 22 22 74 -18 74 -10 0 -23 -7
-30 -15z"/>
<path d="M1130 1605 c-26 -32 13 -81 48 -59 34 22 22 74 -18 74 -10 0 -23 -7
-30 -15z"/>
<path d="M1430 1605 c-26 -32 13 -81 48 -59 34 22 22 74 -18 74 -10 0 -23 -7
-30 -15z"/>
<path d="M1530 1605 c-26 -32 13 -81 48 -59 34 22 22 74 -18 74 -10 0 -23 -7
-30 -15z"/>
<path d="M1630 1605 c-26 -32 13 -81 48 -59 34 22 22 74 -18 74 -10 0 -23 -7
-30 -15z"/>
<path d="M2630 1605 c-26 -32 13 -81 48 -59 34 22 22 74 -18 74 -10 0 -23 -7
-30 -15z"/>
<path d="M2830 1605 c-26 -32 13 -81 48 -59 34 22 22 74 -18 74 -10 0 -23 -7
-30 -15z"/>
<path d="M3030 1605 c-26 -32 13 -81 48 -59 34 22 22 74 -18 74 -10 0 -23 -7
-30 -15z"/>
<path d="M3330 1605 c-26 -32 13 -81 48 -59 34 22 22 74 -18 74 -10 0 -23 -7
-30 -15z"/>
<path d="M3430 1605 c-26 -32 13 -81 48 -59 34 22 22 74 -18 74 -10 0 -23 -7
-30 -15z"/>
<path d="M3530 1605 c-26 -32 13 -81 48 -59 34 22 22 74 -18 74 -10 0 -23 -7
-30 -15z"/>
<path d="M3630 1605 c-26 -32 13 -81 48 -59 34 22 22 74 -18 74 -10 0 -23 -7
-30 -15z"/>
<path d="M3930 1605 c-26 -32 13 -81 48 -59 34 22 22 74 -18 74 -10 0 -23 -7
-30 -15z"/>
<path d="M430 1505 c-26 -32 13 -81 48 -59 34 22 22 74 -18 74 -10 0 -23 -7
-30 -15z"/>
<path d="M530 1505 c-26 -32 13 -81 48 -59 34 22 22 74 -18 74 -10 0 -23 -7
-30 -15z"/>
<path d="M730 1505 c-26 -32 13 -81 48 -59 34 22 22 74 -18 74 -10 0 -23 -7
-30 -15z"/>
<path d="M930 1505 c-26 -32 13 -81 48 -59 34 22 22 74 -18 74 -10 0 -23 -7
-30 -15z"/>
<path d="M1330 1505 c-26 -32 13 -81 48 -59 34 22 22 74 -18 74 -10 0 -23 -7
-30 -15z"/>
<path d="M1730 1505 c-26 -32 13 -81 48 -59 34 22 22 74 -18 74 -10 0 -23 -7
-30 -15z"/>
<path d="M2030 1505 c-26 -32 13 -81 48 -59 34 22 22 74 -18 74 -10 0 -23 -7
-30 -15z"/>
<path d="M2230 1505 c-26 -32 13 -81 48 -59 34 22 22 74 -18 74 -10 0 -23 -7
-30 -15z"/>
<path d="M2330 1505 c-26 -32 13 -81 48 -59 34 22 22 74 -18 74 -10 0 -23 -7
-30 -15z"/>
<path d="M2430 1505 c-26 -32 13 -81 48 -59 34 22 22 74 -18 74 -10 0 -23 -7
-30 -15z"/>
<path d="M2530 1505 c-26 -32 13 -81 48 -59 34 22 22 74 -18 74 -10 0 -23 -7
-30 -15z"/>
<path d="M2630 1505 c-26 -32 13 -81 48 -59 34 22 22 74 -18 74 -10 0 -23 -7
-30 -15z"/>
<path d="M2830 1505 c-26 -32 13 -81 48 -59 34 22 22 74 -18 74 -10 0 -23 -7
-30 -15z"/>
<path d="M3030 1505 c-26 -32 13 -81 48 -59 34 22 22 74 -18 74 -10 0 -23 -7
-30 -15z"/>
<path d="M3130 1505 c-26 -32 13 -81 48 -59 34 22 22 74 -18 74 -10 0 -23 -7
-30 -15z"/>
<path d="M3430 1505 c-26 -32 13 -81 48 -59 34 22 22 74 -18 74 -10 0 -23 -7
-30 -15z"/>
<path d="M3530 1505 c-26 -32 13 -81 48 -59 34 22 22 74 -18 74 -10 0 -23 -7
-30 -15z"/>
<path d="M630 1405 c-26 -32 13 -81 48 -59 34 22 22 74 -18 74 -10 0 -23 -7
-30 -15z"/>
<path d="M830 1405 c-26 -32 13 -81 48 -59 34 22 22 74 -18 74 -10 0 -23 -7
-30 -15z"/>
<path d="M1030 1405 c-26 -32 13 -81 48 -59 34 22 22 74 -18 74 -10 0 -23 -7
-30 -15z"/>
<path d="M1330 1405 c-26 -32 13 -81 48 -59 34 22 22 74 -18 74 -10 0 -23 -7
-30 -15z"/>
<path d="M1430 1405 c-26 -32 13 -81 48 -59 34 22 22 74 -18 74 -10 0 -23 -7
-30 -15z"/>
<path d="M1630 1405 c-26 -32 13 -81 48 -59 34 22 22 74 -18 74 -10 0 -23 -7
-30 -15z"/>
<path d="M1730 1405 c-26 -32 13 -81 48 -59 34 22 22 74 -18 74 -10 0 -23 -7
-30 -15z"/>
<path d="M2330 1405 c-26 -32 13 -81 48 -59 34 22 22 74 -18 74 -10 0 -23 -7
-30 -15z"/>
<path d="M2430 1405 c-26 -32 13 -81 48 -59 34 22 22 74 -18 74 -10 0 -23 -7
-30 -15z"/>
<path d="M2530 1405 c-26 -32 13 -81 48 -59 34 22 22 74 -18 74 -10 0 -23 -7
-30 -15z"/>
<path d="M3130 1405 c-26 -32 13 -81 48 -59 34 22 22 74 -18 74 -10 0 -23 -7
-30 -15z"/>
<path d="M3430 1405 c-26 -32 13 -81 48 -59 34 22 22 74 -18 74 -10 0 -23 -7
-30 -15z"/>
<path d="M3530 1405 c-26 -32 13 -81 48 -59 34 22 22 74 -18 74 -10 0 -23 -7
-30 -15z"/>
<path d="M3630 1405 c-26 -32 13 -81 48 -59 34 22 22 74 -18 74 -10 0 -23 -7
-30 -15z"/>
<path d="M3730 1405 c-26 -32 13 -81 48 -59 34 22 22 74 -18 74 -10 0 -23 -7
-30 -15z"/>
<path d="M3930 1405 c-26 -32 13 -81 48 -59 34 22 22 74 -18 74 -10 0 -23 -7
-30 -15z"/>
<path d="M330 1305 c-26 -32 13 -81 48 -59 34 22 22 74 -18 74 -10 0 -23 -7
-30 -15z"/>
<path d="M430 1305 c-26 -32 13 -81 48 -59 34 22 22 74 -18 74 -10 0 -23 -7
-30 -15z"/>
<path d="M530 1305 c-26 -32 13 -81 48 -59 34 22 22 74 -18 74 -10 0 -23 -7
-30 -15z"/>
<path d="M630 1305 c-26 -32 13 -81 48 -59 34 22 22 74 -18 74 -10 0 -23 -7
-30 -15z"/>
<path d="M730 1305 c-26 -32 13 -81 48 -59 34 22 22 74 -18 74 -10 0 -23 -7
-30 -15z"/>
<path d="M830 1305 c-26 -32 13 -81 48 -59 34 22 22 74 -18 74 -10 0 -23 -7
-30 -15z"/>
<path d="M930 1305 c-26 -32 13 -81 48 -59 34 22 22 74 -18 74 -10 0 -23 -7
-30 -15z"/>
<path d="M1030 1305 c-26 -32 13 -81 48 -59 34 22 22 74 -18 74 -10 0 -23 -7
-30 -15z"/>
<path d="M1230 1305 c-26 -32 13 -81 48 -59 34 22 22 74 -18 74 -10 0 -23 -7
-30 -15z"/>
<path d="M1330 1305 c-26 -32 13 -81 48 -59 34 22 22 74 -18 74 -10 0 -23 -7
-30 -15z"/>
<path d="M1430 1305 c-26 -32 13 -81 48 -59 34 22 22 74 -18 74 -10 0 -23 -7
-30 -15z"/>
<path d="M1630 1305 c-26 -32 13 -81 48 -59 34 22 22 74 -18 74 -10 0 -23 -7
-30 -15z"/>
<path d="M1830 1305 c-26 -32 13 -81 48 -59 34 22 22 74 -18 74 -10 0 -23 -7
-30 -15z"/>
<path d="M2030 1305 c-26 -32 13 -81 48 -59 34 22 22 74 -18 74 -10 0 -23 -7
-30 -15z"/>
<path d="M2330 1305 c-26 -32 13 -81 48 -59 34 22 22 74 -18 74 -10 0 -23 -7
-30 -15z"/>
<path d="M2630 1305 c-26 -32 13 -81 48 -59 34 22 22 74 -18 74 -10 0 -23 -7
-30 -15z"/>
<path d="M2830 1305 c-26 -32 13 -81 48 -59 34 22 22 74 -18 74 -10 0 -23 -7
-30 -15z"/>
<path d="M3130 1305 c-26 -32 13 -81 48 -59 34 22 22 74 -18 74 -10 0 -23 -7
-30 -15z"/>
<path d="M3330 1305 c-26 -32 13 -81 48 -59 34 22 22 74 -18 74 -10 0 -23 -7
-30 -15z"/>
<path d="M3430 1305 c-26 -32 13 -81 48 -59 34 22 22 74 -18 74 -10 0 -23 -7
-30 -15z"/>
<path d="M3630 1305 c-26 -32 13 -81 48 -59 34 22 22 74 -18 74 -10 0 -23 -7
-30 -15z"/>
<path d="M3930 1305 c-26 -32 13 -81 48 -59 34 22 22 74 -18 74 -10 0 -23 -7
-30 -15z"/>
<path d="M630 1205 c-26 -32 13 -81 48 -59 34 22 22 74 -18 74 -10 0 -23 -7
-30 -15z"/>
<path d="M730 1205 c-26 -32 13 -81 48 -59 34 22 22 74 -18 74 -10 0 -23 -7
-30 -15z"/>
<path d="M1330 1205 c-26 -32 13 -81 48 -59 34 22 22 74 -18 74 -10 0 -23 -7
-30 -15z"/>
<path d="M1430 1205 c-26 -32 13 -81 48 -59 34 22 22 74 -18 74 -10 0 -23 -7
-30 -15z"/>
<path d="M1530 1205 c-26 -32 13 -81 48 -59 34 22 22 74 -18 74 -10 0 -23 -7
-30 -15z"/>
<path d="M1630 1205 c-26 -32 13 -81 48 -59 34 22 22 74 -18 74 -10 0 -23 -7
-30 -15z"/>
<path d="M2130 1205 c-26 -32 13 -81 48 -59 34 22 22 74 -18 74 -10 0 -23 -7
-30 -15z"/>
<path d="M2230 1205 c-26 -32 13 -81 48 -59 34 22 22 74 -18 74 -10 0 -23 -7
-30 -15z"/>
<path d="M2330 1205 c-26 -32 13 -81 48 -59 34 22 22 74 -18 74 -10 0 -23 -7
-30 -15z"/>
<path d="M2930 1205 c-26 -32 13 -81 48 -59 34 22 22 74 -18 74 -10 0 -23 -7
-30 -15z"/>
<path d="M3030 1205 c-26 -32 13 -81 48 -59 34 22 22 74 -18 74 -10 0 -23 -7
-30 -15z"/>
<path d="M3130 1205 c-26 -32 13 -81 48 -59 34 22 22 74 -18 74 -10 0 -23 -7
-30 -15z"/>
<path d="M3430 1205 c-26 -32 13 -81 48 -59 34 22 22 74 -18 74 -10 0 -23 -7
-30 -15z"/>
<path d="M3530 1205 c-26 -32 13 -81 48 -59 34 22 22 74 -18 74 -10 0 -23 -7
-30 -15z"/>
<path d="M3630 1205 c-26 -32 13 -81 48 -59 34 22 22 74 -18 74 -10 0 -23 -7
-30 -15z"/>
<path d="M3730 1205 c-26 -32 13 -81 48 -59 34 22 22 74 -18 74 -10 0 -23 -7
-30 -15z"/>
<path d="M3930 1205 c-26 -32 13 -81 48 -59 34 22 22 74 -18 74 -10 0 -23 -7
-30 -15z"/>
<path d="M330 1105 c-26 -32 13 -81 48 -59 34 22 22 74 -18 74 -10 0 -23 -7
-30 -15z"/>
<path d="M430 1105 c-26 -32 13 -81 48 -59 34 22 22 74 -18 74 -10 0 -23 -7
-30 -15z"/>
<path d="M730 1105 c-26 -32 13 -81 48 -59 34 22 22 74 -18 74 -10 0 -23 -7
-30 -15z"/>
<path d="M930 1105 c-26 -32 13 -81 48 -59 34 22 22 74 -18 74 -10 0 -23 -7
-30 -15z"/>
<path d="M1030 1105 c-26 -32 13 -81 48 -59 34 22 22 74 -18 74 -10 0 -23 -7
-30 -15z"/>
<path d="M1230 1105 c-26 -32 13 -81 48 -59 34 22 22 74 -18 74 -10 0 -23 -7
-30 -15z"/>
<path d="M1430 1105 c-26 -32 13 -81 48 -59 34 22 22 74 -18 74 -10 0 -23 -7
-30 -15z"/>
<path d="M1530 1105 c-26 -32 13 -81 48 -59 34 22 22 74 -18 74 -10 0 -23 -7
-30 -15z"/>
<path d="M1630 1105 c-26 -32 13 -81 48 -59 34 22 22 74 -18 74 -10 0 -23 -7
-30 -15z"/>
<path d="M1830 1105 c-26 -32 13 -81 48 -59 34 22 22 74 -18 74 -10 0 -23 -7
-30 -15z"/>
<path d="M1930 1105 c-26 -32 13 -81 48 -59 34 22 22 74 -18 74 -10 0 -23 -7
-30 -15z"/>
<path d="M2630 1105 c-26 -32 13 -81 48 -59 34 22 22 74 -18 74 -10 0 -23 -7
-30 -15z"/>
<path d="M3130 1105 c-26 -32 13 -81 48 -59 34 22 22 74 -18 74 -10 0 -23 -7
-30 -15z"/>
<path d="M3230 1105 c-26 -32 13 -81 48 -59 34 22 22 74 -18 74 -10 0 -23 -7
-30 -15z"/>
<path d="M3330 1105 c-26 -32 13 -81 48 -59 34 22 22 74 -18 74 -10 0 -23 -7
-30 -15z"/>
<path d="M3430 1105 c-26 -32 13 -81 48 -59 34 22 22 74 -18 74 -10 0 -23 -7
-30 -15z"/>
<path d="M3530 1105 c-26 -32 13 -81 48 -59 34 22 22 74 -18 74 -10 0 -23 -7
-30 -15z"/>
<path d="M3630 1105 c-26 -32 13 -81 48 -59 34 22 22 74 -18 74 -10 0 -23 -7
-30 -15z"/>
<path d="M3730 1105 c-26 -32 13 -81 48 -59 34 22 22 74 -18 74 -10 0 -23 -7
-30 -15z"/>
<path d="M3830 1105 c-26 -32 13 -81 48 -59 34 22 22 74 -18 74 -10 0 -23 -7
-30 -15z"/>
<path d="M1130 1005 c-26 -32 13 -81 48 -59 34 22 22 74 -18 74 -10 0 -23 -7
-30 -15z"/>
<path d="M1230 1005 c-26 -32 13 -81 48 -59 34 22 22 74 -18 74 -10 0 -23 -7
-30 -15z"/>
<path d="M1330 1005 c-26 -32 13 -81 48 -59 34 22 22 74 -18 74 -10 0 -23 -7
-30 -15z"/>
<path d="M1430 1005 c-26 -32 13 -81 48 -59 34 22 22 74 -18 74 -10 0 -23 -7
-30 -15z"/>
<path d="M1530 1005 c-26 -32 13 -81 48 -59 34 22 22 74 -18 74 -10 0 -23 -7
-30 -15z"/>
<path d="M1730 1005 c-26 -32 13 -81 48 -59 34 22 22 74 -18 74 -10 0 -23 -7
-30 -15z"/>
<path d="M1830 1005 c-26 -32 13 -81 48 -59 34 22 22 74 -18 74 -10 0 -23 -7
-30 -15z"/>
<path d="M2230 1005 c-26 -32 13 -81 48 -59 34 22 22 74 -18 74 -10 0 -23 -7
-30 -15z"/>
<path d="M2330 1005 c-26 -32 13 -81 48 -59 34 22 22 74 -18 74 -10 0 -23 -7
-30 -15z"/>
<path d="M2430 1005 c-26 -32 13 -81 48 -59 34 22 22 74 -18 74 -10 0 -23 -7
-30 -15z"/>
<path d="M2630 1005 c-26 -32 13 -81 48 -59 34 22 22 74 -18 74 -10 0 -23 -7
-30 -15z"/>
<path d="M2730 1005 c-26 -32 13 -81 48 -59 34 22 22 74 -18 74 -10 0 -23 -7
-30 -15z"/>
<path d="M2930 1005 c-26 -32 13 -81 48 -59 34 22 22 74 -18 74 -10 0 -23 -7
-30 -15z"/>
<path d="M3130 1005 c-26 -32 13 -81 48 -59 34 22 22 74 -18 74 -10 0 -23 -7
-30 -15z"/>
<path d="M3530 1005 c-26 -32 13 -81 48 -59 34 22 22 74 -18 74 -10 0 -23 -7
-30 -15z"/>
<path d="M361 916 c-48 -27 -50 -42 -51 -334 0 -296 3 -317 55 -340 41 -19
557 -17 594 2 48 25 51 46 51 336 0 290 -3 311 -51 336 -39 20 -562 20 -598 0z
m494 -98 c48 -22 55 -51 55 -238 0 -253 3 -250 -250 -250 -254 0 -250 -3 -250
252 1 185 6 209 51 234 32 18 356 19 394 2z"/>
<path d="M561 716 c-37 -21 -50 -55 -51 -133 0 -123 29 -153 150 -153 120 0
150 30 150 150 0 81 -13 116 -51 136 -36 18 -165 18 -198 0z"/>
<path d="M1130 905 c-26 -32 13 -81 48 -59 34 22 22 74 -18 74 -10 0 -23 -7
-30 -15z"/>
<path d="M1230 905 c-26 -32 13 -81 48 -59 34 22 22 74 -18 74 -10 0 -23 -7
-30 -15z"/>
<path d="M1430 905 c-26 -32 13 -81 48 -59 34 22 22 74 -18 74 -10 0 -23 -7
-30 -15z"/>
<path d="M1530 905 c-26 -32 13 -81 48 -59 34 22 22 74 -18 74 -10 0 -23 -7
-30 -15z"/>
<path d="M1630 905 c-26 -32 13 -81 48 -59 34 22 22 74 -18 74 -10 0 -23 -7
-30 -15z"/>
<path d="M1730 905 c-26 -32 13 -81 48 -59 34 22 22 74 -18 74 -10 0 -23 -7
-30 -15z"/>
<path d="M1830 905 c-26 -32 13 -81 48 -59 34 22 22 74 -18 74 -10 0 -23 -7
-30 -15z"/>
<path d="M1930 905 c-26 -32 13 -81 48 -59 34 22 22 74 -18 74 -10 0 -23 -7
-30 -15z"/>
<path d="M2030 905 c-26 -32 13 -81 48 -59 34 22 22 74 -18 74 -10 0 -23 -7
-30 -15z"/>
<path d="M2130 905 c-26 -32 13 -81 48 -59 34 22 22 74 -18 74 -10 0 -23 -7
-30 -15z"/>
<path d="M2230 905 c-26 -32 13 -81 48 -59 34 22 22 74 -18 74 -10 0 -23 -7
-30 -15z"/>
<path d="M2630 905 c-26 -32 13 -81 48 -59 34 22 22 74 -18 74 -10 0 -23 -7
-30 -15z"/>
<path d="M2830 905 c-26 -32 13 -81 48 -59 34 22 22 74 -18 74 -10 0 -23 -7
-30 -15z"/>
<path d="M2930 905 c-26 -32 13 -81 48 -59 34 22 22 74 -18 74 -10 0 -23 -7
-30 -15z"/>
<path d="M3130 905 c-26 -32 13 -81 48 -59 34 22 22 74 -18 74 -10 0 -23 -7
-30 -15z"/>
<path d="M3330 905 c-26 -32 13 -81 48 -59 34 22 22 74 -18 74 -10 0 -23 -7
-30 -15z"/>
<path d="M3530 905 c-26 -32 13 -81 48 -59 34 22 22 74 -18 74 -10 0 -23 -7
-30 -15z"/>
<path d="M3830 905 c-26 -32 13 -81 48 -59 34 22 22 74 -18 74 -10 0 -23 -7
-30 -15z"/>
<path d="M3930 905 c-26 -32 13 -81 48 -59 34 22 22 74 -18 74 -10 0 -23 -7
-30 -15z"/>
<path d="M1230 805 c-26 -32 13 -81 48 -59 34 22 22 74 -18 74 -10 0 -23 -7
-30 -15z"/>
<path d="M1630 805 c-26 -32 13 -81 48 -59 34 22 22 74 -18 74 -10 0 -23 -7
-30 -15z"/>
<path d="M2130 805 c-26 -32 13 -81 48 -59 34 22 22 74 -18 74 -10 0 -23 -7
-30 -15z"/>
<path d="M2330 805 c-26 -32 13 -81 48 -59 34 22 22 74 -18 74 -10 0 -23 -7
-30 -15z"/>
<path d="M2430 805 c-26 -32 13 -81 48 -59 34 22 22 74 -18 74 -10 0 -23 -7
-30 -15z"/>
<path d="M2730 805 c-26 -32 13 -81 48 -59 34 22 22 74 -18 74 -10 0 -23 -7
-30 -15z"/>
<path d="M2930 805 c-26 -32 13 -81 48 -59 34 22 22 74 -18 74 -10 0 -23 -7
-30 -15z"/>
<path d="M3030 805 c-26 -32 13 -81 48 -59 34 22 22 74 -18 74 -10 0 -23 -7
-30 -15z"/>
<path d="M3130 805 c-26 -32 13 -81 48 -59 34 22 22 74 -18 74 -10 0 -23 -7
-30 -15z"/>
<path d="M3530 805 c-26 -32 13 -81 48 -59 34 22 22 74 -18 74 -10 0 -23 -7
-30 -15z"/>
<path d="M3830 805 c-26 -32 13 -81 48 -59 34 22 22 74 -18 74 -10 0 -23 -7
-30 -15z"/>
<path d="M3930 805 c-26 -32 13 -81 48 -59 34 22 22 74 -18 74 -10 0 -23 -7
-30 -15z"/>
<path d="M1230 705 c-26 -32 13 -81 48 -59 34 22 22 74 -18 74 -10 0 -23 -7
-30 -15z"/>
<path d="M1330 705 c-26 -32 13 -81 48 -59 34 22 22 74 -18 74 -10 0 -23 -7
-30 -15z"/>
<path d="M1430 705 c-26 -32 13 -81 48 -59 34 22 22 74 -18 74 -10 0 -23 -7
-30 -15z"/>
<path d="M1930 705 c-26 -32 13 -81 48 -59 34 22 22 74 -18 74 -10 0 -23 -7
-30 -15z"/>
<path d="M2030 705 c-26 -32 13 -81 48 -59 34 22 22 74 -18 74 -10 0 -23 -7
-30 -15z"/>
<path d="M2130 705 c-26 -32 13 -81 48 -59 34 22 22 74 -18 74 -10 0 -23 -7
-30 -15z"/>
<path d="M2230 705 c-26 -32 13 -81 48 -59 34 22 22 74 -18 74 -10 0 -23 -7
-30 -15z"/>
<path d="M2430 705 c-26 -32 13 -81 48 -59 34 22 22 74 -18 74 -10 0 -23 -7
-30 -15z"/>
<path d="M2630 705 c-26 -32 13 -81 48 -59 34 22 22 74 -18 74 -10 0 -23 -7
-30 -15z"/>
<path d="M2730 705 c-26 -32 13 -81 48 -59 34 22 22 74 -18 74 -10 0 -23 -7
-30 -15z"/>
<path d="M2830 705 c-26 -32 13 -81 48 -59 34 22 22 74 -18 74 -10 0 -23 -7
-30 -15z"/>
<path d="M2930 705 c-26 -32 13 -81 48 -59 34 22 22 74 -18 74 -10 0 -23 -7
-30 -15z"/>
<path d="M3030 705 c-26 -32 13 -81 48 -59 34 22 22 74 -18 74 -10 0 -23 -7
-30 -15z"/>
<path d="M3130 705 c-26 -32 13 -81 48 -59 34 22 22 74 -18 74 -10 0 -23 -7
-30 -15z"/>
<path d="M3230 705 c-26 -32 13 -81 48 -59 34 22 22 74 -18 74 -10 0 -23 -7
-30 -15z"/>
<path d="M3330 705 c-26 -32 13 -81 48 -59 34 22 22 74 -18 74 -10 0 -23 -7
-30 -15z"/>
<path d="M3430 705 c-26 -32 13 -81 48 -59 34 22 22 74 -18 74 -10 0 -23 -7
-30 -15z"/>
<path d="M3530 705 c-26 -32 13 -81 48 -59 34 22 22 74 -18 74 -10 0 -23 -7
-30 -15z"/>
<path d="M1230 605 c-26 -32 13 -81 48 -59 22 14 27 41 12 59 -16 19 -44 19
-60 0z"/>
<path d="M1330 605 c-15 -18 -10 -45 13 -59 34 -22 73 27 47 59 -16 19 -44 19
-60 0z"/>
<path d="M1530 605 c-26 -32 13 -81 48 -59 22 14 27 41 12 59 -16 19 -44 19
-60 0z"/>
<path d="M1630 605 c-26 -32 13 -81 48 -59 22 14 27 41 12 59 -16 19 -44 19
-60 0z"/>
<path d="M1930 605 c-15 -18 -10 -45 13 -59 34 -22 73 27 47 59 -16 19 -44 19
-60 0z"/>
<path d="M2130 605 c-26 -32 13 -81 48 -59 22 14 27 41 12 59 -16 19 -44 19
-60 0z"/>
<path d="M2730 605 c-15 -18 -10 -45 13 -59 34 -22 73 27 47 59 -16 19 -44 19
-60 0z"/>
<path d="M2930 605 c-26 -32 13 -81 48 -59 22 14 27 41 12 59 -16 19 -44 19
-60 0z"/>
<path d="M3030 605 c-15 -18 -10 -45 13 -59 34 -22 73 27 47 59 -16 19 -44 19
-60 0z"/>
<path d="M3230 605 c-26 -32 13 -81 48 -59 22 14 27 41 12 59 -16 19 -44 19
-60 0z"/>
<path d="M3530 605 c-15 -18 -10 -45 13 -59 34 -22 73 27 47 59 -16 19 -44 19
-60 0z"/>
<path d="M3930 605 c-15 -18 -10 -45 13 -59 34 -22 73 27 47 59 -16 19 -44 19
-60 0z"/>
<path d="M1130 505 c-26 -32 13 -81 48 -59 22 14 27 41 12 59 -16 19 -44 19
-60 0z"/>
<path d="M1330 505 c-26 -32 13 -81 48 -59 22 14 27 41 12 59 -16 19 -44 19
-60 0z"/>
<path d="M1430 505 c-26 -32 13 -81 48 -59 22 14 27 41 12 59 -16 19 -44 19
-60 0z"/>
<path d="M1630 505 c-26 -32 13 -81 48 -59 22 14 27 41 12 59 -16 19 -44 19
-60 0z"/>
<path d="M1730 505 c-26 -32 13 -81 48 -59 22 14 27 41 12 59 -16 19 -44 19
-60 0z"/>
<path d="M1930 505 c-15 -18 -10 -45 13 -59 34 -22 73 27 47 59 -16 19 -44 19
-60 0z"/>
<path d="M2130 505 c-26 -32 13 -81 48 -59 22 14 27 41 12 59 -16 19 -44 19
-60 0z"/>
<path d="M2230 505 c-26 -32 13 -81 48 -59 22 14 27 41 12 59 -16 19 -44 19
-60 0z"/>
<path d="M2430 505 c-26 -32 13 -81 48 -59 22 14 27 41 12 59 -16 19 -44 19
-60 0z"/>
<path d="M2730 505 c-15 -18 -10 -45 13 -59 34 -22 73 27 47 59 -16 19 -44 19
-60 0z"/>
<path d="M2830 505 c-15 -18 -10 -45 13 -59 34 -22 73 27 47 59 -16 19 -44 19
-60 0z"/>
<path d="M3030 505 c-15 -18 -10 -45 13 -59 34 -22 73 27 47 59 -16 19 -44 19
-60 0z"/>
<path d="M3230 505 c-26 -32 13 -81 48 -59 22 14 27 41 12 59 -16 19 -44 19
-60 0z"/>
<path d="M3430 505 c-15 -18 -10 -45 13 -59 34 -22 73 27 47 59 -16 19 -44 19
-60 0z"/>
<path d="M3530 505 c-15 -18 -10 -45 13 -59 34 -22 73 27 47 59 -16 19 -44 19
-60 0z"/>
<path d="M3730 505 c-15 -18 -10 -45 13 -59 34 -22 73 27 47 59 -16 19 -44 19
-60 0z"/>
<path d="M3830 505 c-15 -18 -10 -45 13 -59 34 -22 73 27 47 59 -16 19 -44 19
-60 0z"/>
<path d="M3930 505 c-15 -18 -10 -45 13 -59 34 -22 73 27 47 59 -16 19 -44 19
-60 0z"/>
<path d="M1230 405 c-26 -32 13 -81 48 -59 22 14 27 41 12 59 -16 19 -44 19
-60 0z"/>
<path d="M1330 405 c-15 -18 -10 -45 13 -59 34 -22 73 27 47 59 -16 19 -44 19
-60 0z"/>
<path d="M1530 405 c-26 -32 13 -81 48 -59 22 14 27 41 12 59 -16 19 -44 19
-60 0z"/>
<path d="M1830 405 c-26 -32 13 -81 48 -59 22 14 27 41 12 59 -16 19 -44 19
-60 0z"/>
<path d="M1930 405 c-15 -18 -10 -45 13 -59 34 -22 73 27 47 59 -16 19 -44 19
-60 0z"/>
<path d="M2130 405 c-26 -32 13 -81 48 -59 22 14 27 41 12 59 -16 19 -44 19
-60 0z"/>
<path d="M2530 405 c-26 -32 13 -81 48 -59 22 14 27 41 12 59 -16 19 -44 19
-60 0z"/>
<path d="M2630 405 c-15 -18 -10 -45 13 -59 34 -22 73 27 47 59 -16 19 -44 19
-60 0z"/>
<path d="M2730 405 c-15 -18 -10 -45 13 -59 34 -22 73 27 47 59 -16 19 -44 19
-60 0z"/>
<path d="M3030 405 c-15 -18 -10 -45 13 -59 34 -22 73 27 47 59 -16 19 -44 19
-60 0z"/>
<path d="M3530 405 c-15 -18 -10 -45 13 -59 34 -22 73 27 47 59 -16 19 -44 19
-60 0z"/>
<path d="M1130 305 c-26 -32 13 -81 48 -59 22 14 27 41 12 59 -16 19 -44 19
-60 0z"/>
<path d="M1330 305 c-15 -18 -10 -45 13 -59 34 -22 73 27 47 59 -16 19 -44 19
-60 0z"/>
<path d="M1430 305 c-15 -18 -10 -45 13 -59 34 -22 73 27 47 59 -16 19 -44 19
-60 0z"/>
<path d="M1630 305 c-26 -32 13 -81 48 -59 22 14 27 41 12 59 -16 19 -44 19
-60 0z"/>
<path d="M1730 305 c-15 -18 -10 -45 13 -59 34 -22 73 27 47 59 -16 19 -44 19
-60 0z"/>
<path d="M1930 305 c-15 -18 -10 -45 13 -59 34 -22 73 27 47 59 -16 19 -44 19
-60 0z"/>
<path d="M2230 305 c-15 -18 -10 -45 13 -59 34 -22 73 27 47 59 -16 19 -44 19
-60 0z"/>
<path d="M2330 305 c-15 -18 -10 -45 13 -59 34 -22 73 27 47 59 -16 19 -44 19
-60 0z"/>
<path d="M2730 305 c-26 -32 13 -81 48 -59 9 6 18 19 20 28 8 38 -43 61 -68
31z"/>
<path d="M3030 305 c-26 -32 13 -81 48 -59 9 6 18 19 20 28 8 38 -43 61 -68
31z"/>
<path d="M3130 305 c-26 -32 13 -81 48 -59 9 6 18 19 20 28 8 38 -43 61 -68
31z"/>
<path d="M3330 305 c-26 -32 13 -81 48 -59 9 6 18 19 20 28 8 38 -43 61 -68
31z"/>
<path d="M3430 305 c-26 -32 13 -81 48 -59 9 6 18 19 20 28 8 38 -43 61 -68
31z"/>
<path d="M3730 305 c-26 -32 13 -81 48 -59 9 6 18 19 20 28 8 38 -43 61 -68
31z"/>
<path d="M3930 305 c-26 -32 13 -81 48 -59 9 6 18 19 20 28 8 38 -43 61 -68
31z"/>
</g>
</svg>
